<svg xmlns="http://www.w3.org/2000/svg" width="30" height="30" viewBox="0 0 30 30" enable-background="new 0 0 30 30"><path d="M20.3 23h-10.5c-.7 0-1.5-.3-2-.9-.5-.5-.7-1.3-.7-2l.7-9.9c.2-.9.8-1.5 1.7-1.5h11c.9 0 1.5.7 1.6 1.5l.7 9.9c.1.7-.2 1.5-.7 2-.3.6-1.1.9-1.8.9zm-10.7-13.3c-.4 0-.6.2-.6.6l-.7 9.9c0 .4.1.9.4 1.2.3.3.7.5 1.2.5h10.5c.4 0 .9-.2 1.2-.5.3-.3.4-.7.4-1.2l-.7-9.9c0-.3-.2-.5-.5-.5h-11.2zM17.1 11.5c-.3 0-.5-.2-.5-.5v-3.4c0-.9-.7-1.5-1.5-1.5s-1.5.7-1.5 1.5v3.4c0 .3-.2.5-.5.5s-.5-.2-.5-.5v-3.4c0-1.4 1.2-2.6 2.6-2.6 1.4 0 2.6 1.2 2.6 2.6v3.4c-.2.3-.5.5-.7.5z"/></svg>
