<?xml version="1.0" encoding="utf-8"?>
<!-- Generator: Adobe Illustrator 20.1.0, SVG Export Plug-In . SVG Version: 6.00 Build 0)  -->
<!DOCTYPE svg PUBLIC "-//W3C//DTD SVG 1.1//EN" "http://www.w3.org/Graphics/SVG/1.1/DTD/svg11.dtd">
<svg version="1.1" id="Calque_1" xmlns="http://www.w3.org/2000/svg" xmlns:xlink="http://www.w3.org/1999/xlink" x="0px" y="0px"
	 width="30px" height="30px" viewBox="0 0 30 30" enable-background="new 0 0 30 30" xml:space="preserve">
<g>
	<path d="M20.9,21c1.7,0,3.1-1.5,3.1-3.3c0-1.6-1.2-3.1-2.7-3.3c0-0.2,0-0.4,0-0.7c0-2.7-2.1-4.8-4.7-4.8c-2.1,0-3.8,1.4-4.4,3.3
		c-0.3-0.1-0.7-0.1-1-0.1C8.7,12,7.5,12.8,7.5,16c0,0.2,0,0.4,0,0.6c-0.9,0.2-1.5,1-1.5,2C6,19.8,7.1,21,8.2,21H20.9z"/>
</g>
</svg>
