<svg xmlns="http://www.w3.org/2000/svg" viewBox="0 0 50 50" enable-background="new 0 0 50 50"><path d="M48.8 21.4c-.5-.5-10.8-12.3-23.8-12.3s-23.3 11.8-23.8 12.3c-.3.4-.3.9 0 1.3.2.2 2.5 2.9 6.2 5.7l-.1.1-2.7 3.1c-.3.4-.3 1 .1 1.4s1 .3 1.4-.1l2.7-3.1.2-.3c1.8 1.2 3.8 2.4 6.1 3.4l-.1.2-1 3.9c-.1.5.2 1 .7 1.2.5.1 1-.2 1.2-.7l1-3.9c2.3.8 4.7 1.4 7.3 1.5v4.1c0 .5.4 1 1 1s1-.4 1-1v-4.1c2.7-.1 5.3-.7 7.6-1.6v.2l1.2 3.9c.2.5.7.8 1.2.6.5-.2.8-.7.6-1.2l-1.3-4c0-.1-.1-.2-.2-.3 2.3-1 4.3-2.3 6.1-3.5 0 .1.1.3.2.4l2.4 3.3c.3.4.9.5 1.4.2.4-.3.5-.9.2-1.4l-2.4-3.3c-.1-.1-.2-.2-.4-.3 3.5-2.7 5.7-5.2 5.9-5.5.4-.2.4-.8.1-1.2zm-23.8 11.7c-10.4 0-19.3-8.5-21.6-11 2.3-2.5 11.2-11 21.6-11 10.4 0 19.3 8.5 21.6 11-2.3 2.4-11.2 11-21.6 11z"/></svg>