<?xml version="1.0" encoding="utf-8"?>
<!-- Generator: Adobe Illustrator 19.2.1, SVG Export Plug-In . SVG Version: 6.00 Build 0)  -->
<!DOCTYPE svg PUBLIC "-//W3C//DTD SVG 1.1//EN" "http://www.w3.org/Graphics/SVG/1.1/DTD/svg11.dtd">
<svg version="1.1" id="Calque_1" xmlns="http://www.w3.org/2000/svg" xmlns:xlink="http://www.w3.org/1999/xlink" x="0px" y="0px"
	 width="30px" height="30px" viewBox="0 0 30 30" enable-background="new 0 0 30 30" xml:space="preserve">
<g>
	<g>
		<path d="M15.7,6c0.5,0,2.3,5.5,2.8,5.9s6.1,0.5,6.2,1c0.2,0.5-4.3,4-4.5,4.6c-0.2,0.6,1.4,6.2,1,6.5c-0.4,0.3-5-3.1-5.6-3.1
			c-0.6,0-5.2,3.4-5.6,3.1c-0.4-0.3,1.2-5.9,1-6.5c-0.2-0.6-4.6-4.1-4.5-4.6c0.1-0.5,5.7-0.6,6.2-1C13.3,11.5,15.2,6,15.7,6z"/>
	</g>
</g>
</svg>
