<svg xmlns="http://www.w3.org/2000/svg" width="30" height="30" viewBox="0 0 30 30" enable-background="new 0 0 30 30"><path d="M23.5 13.5h-2.7v-2.7c0-.2-.2-.4-.4-.4h-.8c-.2 0-.4.2-.4.4v2.7h-2.7c-.2 0-.4.2-.4.4v.8c0 .2.2.4.4.4h2.7v2.7c0 .2.2.4.4.4h.8c.2 0 .4-.2.4-.4v-2.8h2.7c.2 0 .4-.2.4-.4v-.8c0-.1-.2-.3-.4-.3zM14.5 15.9c-.6-.4-1.1-1-1.1-1.2 0-.3 0-.5.8-1.1 1-.7 1.5-1.7 1.5-2.8 0-.9-.3-1.8-.8-2.4h.4c.1 0 .2 0 .2-.1l1.1-.8c.1-.1.2-.3.1-.4-.1 0-.2-.1-.4-.1h-4.7c-.5 0-1 .1-1.6.3-1.7.6-2.9 2.1-2.9 3.6 0 2.1 1.7 3.8 3.9 3.8l-.1.5c0 .3.1.6.3.9h-.1c-2.1 0-4 1-4.7 2.6-.2.4-.3.8-.3 1.2 0 .4.1.8.3 1.1.5.8 1.4 1.4 2.7 1.8.7.2 1.4.3 2.2.3.7 0 1.3-.1 1.9-.3 1.9-.5 3.1-1.9 3.1-3.5s-.5-2.5-1.8-3.4zm-4.9-5.1c-.1-.8 0-1.5.4-1.9.3-.3.6-.4 1-.4 1 0 2 1.2 2.2 2.6.1.8-.1 1.5-.5 2-.3.3-.6.4-1 .4-.9-.1-2-1.3-2.1-2.7zm1.7 10.7c-1.5 0-2.8-.9-2.8-2.2 0-1.1 1.4-2.1 3-2.1.3 0 .7.1 1 .2l.3.2c.7.5 1.2.8 1.4 1.4v.4c.2 1.4-.9 2.1-2.9 2.1z"/></svg>
