<svg xmlns="http://www.w3.org/2000/svg" viewBox="0 0 50 50" enable-background="new 0 0 50 50"><path d="M2.3 18.5c0 11.6 10.2 18.4 17.6 23.4 1.9 1.3 3.5 2.4 4.8 3.4l.6.5.6-.5c1.2-1 2.9-2.1 4.8-3.4 7.4-5 17.6-11.8 17.6-23.4 0-7.2-5.8-13-13-13-3.9 0-7.5 1.7-10 4.7-2.5-3-6.1-4.7-10-4.7-7.2 0-13 5.8-13 13zm13-11c3.7 0 7.1 1.8 9.2 4.9l.8 1.3.8-1.3c2-3.1 5.5-4.9 9.2-4.9 6.1 0 11 4.9 11 11 0 10.5-9.7 17-16.7 21.7-1.6 1.1-3.1 2.1-4.3 3-1.2-.9-2.6-1.9-4.3-3-7.1-4.7-16.7-11.2-16.7-21.7 0-6.1 4.9-11 11-11z"/></svg>