<svg xmlns="http://www.w3.org/2000/svg" viewBox="0 0 50 50" enable-background="new 0 0 50 50"><path d="M43.5 1h-37c-3 0-5.5 2.5-5.5 5.5v36.9c0 3.1 2.5 5.6 5.5 5.6h36.9c3.1 0 5.5-2.5 5.5-5.5v-37c.1-3-2.4-5.5-5.4-5.5zm-18.5 14.8c5.1 0 9.2 4.1 9.2 9.2s-4.1 9.2-9.2 9.2-9.2-4.1-9.2-9.2 4.1-9.2 9.2-9.2zm18.5 25.8c0 1-.8 1.8-1.8 1.8h-33.3c-1 0-1.8-.8-1.8-1.8v-20.3h4.2c-.3 1.2-.5 2.4-.5 3.7 0 8.2 6.6 14.8 14.8 14.8 8.2 0 14.8-6.6 14.8-14.8 0-1.3-.2-2.5-.5-3.7h4.2v20.3zm0-27.7c0 1-.8 1.8-1.8 1.8h-5.5c-1 0-1.8-.8-1.8-1.8v-5.5c0-1 .8-1.8 1.8-1.8h5.5c1 0 1.8.8 1.8 1.8v5.5z"/></svg>