<svg xmlns="http://www.w3.org/2000/svg" width="30" height="30" viewBox="0 0 30 30" enable-background="new 0 0 30 30"><path d="M21.2 7h-12.4c-1 0-1.8.8-1.8 1.8v12.3c0 1 .8 1.8 1.8 1.8h12.3c1 0 1.8-.8 1.8-1.8v-12.3c.1-1-.7-1.8-1.7-1.8zm-6.2 4.9c1.7 0 3.1 1.4 3.1 3.1 0 1.7-1.4 3.1-3.1 3.1-1.7 0-3.1-1.4-3.1-3.1 0-1.7 1.4-3.1 3.1-3.1zm6.2 8.6c0 .3-.3.6-.6.6h-11.1c-.3 0-.6-.3-.6-.6v-6.8h1.4c-.1.4-.2.8-.2 1.2 0 2.7 2.2 4.9 4.9 4.9s4.9-2.2 4.9-4.9c0-.4-.1-.8-.2-1.2h1.4v6.8zm0-9.2c0 .3-.3.6-.6.6h-1.8c-.3 0-.6-.3-.6-.6v-1.8c0-.3.3-.6.6-.6h1.8c.3 0 .6.3.6.6v1.8z"/></svg>
