<svg version="1.1" id="Calque_1" xmlns="http://www.w3.org/2000/svg" xmlns:xlink="http://www.w3.org/1999/xlink" x="0px" y="0px"
	 width="40px" height="40px" viewBox="0 0 40 40" enable-background="new 0 0 40 40" xml:space="preserve">
<g>
	<path d="M9.6,12c-0.2,0-0.4,0-0.6,0.1L20,21.4l11.1-9.2c-0.2-0.1-0.4-0.2-0.7-0.2L9.6,12L9.6,12z"/>
	<path d="M31.9,13.2l-11.6,9.6C20.3,22.9,20.1,23,20,23c-0.2,0-0.3-0.1-0.4-0.2L8.1,13.1C8,13.3,8,13.5,8,13.6v12.7
		c0,0.2,0,0.4,0.1,0.5l6.4-6.4c0.3-0.3,0.7-0.3,1,0c0.3,0.3,0.3,0.7,0,1l-6.4,6.4C9.2,28,9.4,28,9.6,28h20.8c0.2,0,0.4,0,0.6-0.1
		l-6.4-6.4c-0.3-0.3-0.3-0.7,0-1c0.3-0.3,0.7-0.3,1,0l6.4,6.3c0-0.2,0.1-0.3,0.1-0.5V13.6C32,13.5,32,13.4,31.9,13.2z"/>
</g>
</svg>
