<svg xmlns="http://www.w3.org/2000/svg" viewBox="0 0 50 50" enable-background="new 0 0 50 50"><path d="M47.1 5.4c-1.4 0-2.5.9-2.9 2.2l-38.4 11.5c-.5-1-1.5-1.7-2.7-1.7-1.7 0-3 1.3-3 3v6c0 1.7 1.3 3 3 3 1.2 0 2.2-.7 2.7-1.7l8 2.8-.8 2.1c-.4 1.1-.3 2.3.3 3.4.5 1.1 1.5 1.9 2.6 2.3l4.2 1.4c1.1.4 2.3.3 3.4-.3 1.1-.5 1.9-1.5 2.3-2.6l.6-1.9 17.9 6.3c.3 1.3 1.5 2.3 2.9 2.3 1.7 0 3-1.3 3-3v-32c-.1-1.8-1.5-3.1-3.1-3.1zm-44 22c-.6 0-1-.4-1-1v-6c0-.6.4-1 1-1s1 .4 1 1v6c0 .6-.5 1-1 1zm20.6 8.8c-.2.6-.6 1.1-1.2 1.4-.6.3-1.3.4-1.9.1l-4.2-1.4c-.6-.2-1.1-.6-1.4-1.2-.3-.6-.4-1.3-.2-1.8l.8-2.1 8.7 3.1-.6 1.9zm-17.6-10.5v-4.5l38-11.4v29.2l-38-13.3zm42 14.7c0 .6-.4 1-1 1s-1-.4-1-1v-32c0-.6.4-1 1-1s1 .4 1 1v32z"/></svg>