<svg xmlns="http://www.w3.org/2000/svg" viewBox="0 0 50 50" enable-background="new 0 0 50 50"><path d="M33.7 2.8h-31.8c-.6 0-1 .4-1 1v35.7c0 2.6.8 4.7 2.3 6.2 2.5 2.4 6 2.5 6.3 2.5h30.7v-.1c.4 0 .7.1 1 .1.1 0 2 0 3.8-1.1 1.8-1 3.8-3.1 3.8-7.6v-25.1c0-1.7-1.1-4.9-4.8-4.9s-4.8 3.2-4.8 4.8v24.2c0 .6.4 1 1 1s1-.4 1-1v-24.1c0-.5.2-2.9 2.8-2.9 2.7 0 2.8 2.6 2.8 2.9v25.1c0 6.5-5.1 6.7-5.7 6.7-.3 0-6.7-.1-6.7-6.7v-35.7c.3-.6-.2-1-.7-1zm1.9 43.4h-26c-.1 0-3 0-5-1.9-1.1-1.1-1.7-2.8-1.7-4.8v-34.7h29.8v34.7c0 3.3 1.3 5.4 2.9 6.7z"/></svg>