<svg xmlns="http://www.w3.org/2000/svg" xmlns:xlink="http://www.w3.org/1999/xlink" x="0px" y="0px"
	viewBox="0 0 40 40" enable-background="new 0 0 40 40" xml:space="preserve">
<g>
	<path fill-rule="evenodd" clip-rule="evenodd" d="M37,10L37,10l0-1.9C37,5.4,34.6,3,31.9,3H8.1C5.4,3,3,5.4,3,8.1v23.8
		C3,34.8,5.4,37,8.1,37h23.8c2.9,0,5.1-2.4,5.1-5.1V12h0V10z M8.1,5h23.8C33.5,5,35,6.5,35,8.1V10H5V8.1C5,6.5,6.5,5,8.1,5z
		 M35,31.9c0,1.7-1.4,3.1-3.1,3.1H8.1C6.4,35,5,33.6,5,31.9V12h30V31.9z"/>
	<circle fill-rule="evenodd" clip-rule="evenodd" cx="8" cy="8" r="1"/>
	<circle fill-rule="evenodd" clip-rule="evenodd" cx="11" cy="8" r="1"/>
	<circle fill-rule="evenodd" clip-rule="evenodd" cx="14" cy="8" r="1"/>
	<ellipse fill-rule="evenodd" clip-rule="evenodd" cx="15" cy="23.5" rx="1" ry="1.5"/>
	<ellipse fill-rule="evenodd" clip-rule="evenodd" cx="25" cy="23.5" rx="1" ry="1.5"/>
	<path fill-rule="evenodd" clip-rule="evenodd" d="M20.5,27.5h-0.9c-0.8,0-1.5,0.7-1.5,1.5h4C22,28.1,21.3,27.5,20.5,27.5z"/>
</g>
</svg>
