<svg xmlns="http://www.w3.org/2000/svg" viewBox="0 0 50 50" enable-background="new 0 0 50 50"><path d="M39 6c-1.9 0-3.6.7-4.9 2l-20 20c-.9.9-1.5 2.2-1.5 3.5 0 1.3.5 2.6 1.5 3.5.9.9 2.2 1.5 3.5 1.5s2.6-.5 3.5-1.5l15.1-15c.4-.4.4-1 0-1.4s-1-.4-1.4 0l-15.1 15.1c-1.1 1.1-3.1 1.1-4.2 0-.6-.6-.9-1.3-.9-2.1s.3-1.5.9-2.1l20-20c.9-1 2.2-1.5 3.5-1.5s2.6.5 3.5 1.5c1.9 1.9 1.9 5.1 0 7l-24.6 24.6c-2.7 2.7-7.1 2.7-9.9 0-2.7-2.7-2.7-7.1 0-9.9l19.7-19.7c.4-.4.4-1 0-1.4s-1-.4-1.4 0l-19.7 19.7c-3.5 3.5-3.5 9.2 0 12.7 1.8 1.8 4.1 2.6 6.3 2.6s4.6-.9 6.3-2.6l24.8-24.6c2.7-2.7 2.7-7.2 0-9.9-1.4-1.3-3.1-2-5-2z"/></svg>