<svg xmlns="http://www.w3.org/2000/svg" viewBox="0 0 50 50" enable-background="new 0 0 50 50"><g><path d="M43 14.6l-14.6-14.6h-21.4v50h36v-35.4zm-14-11.2l10.6 10.6h-10.6v-10.6zm12 44.6h-32v-46h18v14h14v32zM17.9 28.9c-.8 0-1.5.1-2 .2v8h1v-3.2c.2.1.5.1.8.1 1 0 1.9-.3 2.5-.9.4-.4.6-1 .6-1.7s-.3-1.3-.7-1.7c-.4-.6-1.2-.8-2.2-.8zm-.1 4.1c-.3 0-.6 0-.9-.1v-3.1c.2 0 .5-.1 1-.1 1.2 0 1.9.5 1.9 1.6s-.7 1.7-2 1.7zM22.3 29v8c.5.1 1.2.1 1.9.1 1.6 0 2.8-.4 3.6-1.2.8-.7 1.2-1.8 1.2-3.1s-.4-2.2-1.1-2.9c-.7-.7-1.8-1-3.3-1-.9 0-1.7 0-2.3.1zm5.5 3.8c0 2.2-1.2 3.4-3.4 3.4-.4 0-.8 0-1.1-.1v-6.4c.3-.1.7-.1 1.2-.1 2.3.1 3.3 1.3 3.3 3.2zM31.3 33.3h3.1v-.8h-3.1v-2.7h3.3v-.9h-4.3v8.1h1z"/></g></svg>