<svg xmlns="http://www.w3.org/2000/svg" viewBox="0 0 50 50" enable-background="new 0 0 50 50"><path d="M41 50c2.9 0 8.2-7.2 8.2-7.3.6-.8.9-1.8.8-2.7-.1-.9-.5-1.6-1.1-2.1-.8-.6-9.2-6.2-10.2-6.8-1-.6-2.4-.5-3.8.3-.8.4-3.5 1.9-4.6 2.6-1-.7-3.6-2.6-7.6-6.7-4.1-4.1-6-6.6-6.7-7.6.7-1.1 2.1-3.8 2.6-4.6.8-1.4.9-2.9.3-3.8-.6-1-6.2-9.4-6.8-10.2-.9-1.2-3.1-1.4-4.7-.3-.2 0-7.5 5.4-7.4 8.2.3 8.5 8.6 18.5 15.5 25.5 6.9 6.9 16.9 15.2 25.5 15.5zm0-2c-7.9-.3-17.4-8.2-24.1-14.9-6.7-6.7-14.7-16.3-14.9-24.2 0-1 4-4.8 6.4-6.5.5-.3.9-.4 1.2-.4.4 0 .7.2.7.3.5.8 6.1 9.2 6.7 10.1.1.2.2.9-.3 1.8-.5 1-2.8 5-2.9 5.1l-.3.5.3.5c.1.1 1.8 3 7.3 8.5 5.6 5.6 8.4 7.2 8.5 7.3l.5.3.5-.3s4-2.3 5.1-2.9c.5-.3 1-.4 1.4-.4.2 0 .4.1.4.1 1 .6 9.5 6.2 10.1 6.7.1.1.2.2.3.6 0 .4-.1.9-.4 1.3-1.6 2.5-5.4 6.5-6.5 6.5z"/></svg>