<?xml version="1.0" encoding="utf-8"?>
<!-- Generator: Adobe Illustrator 20.1.0, SVG Export Plug-In . SVG Version: 6.00 Build 0)  -->
<svg version="1.1" id="Calque_1" xmlns="http://www.w3.org/2000/svg" xmlns:xlink="http://www.w3.org/1999/xlink" x="0px" y="0px"
	 viewBox="0 0 30 30" enable-background="new 0 0 30 30" xml:space="preserve">
<path d="M21.9,7.7C20.7,6.6,19.2,7,19.2,7h-8.3c-0.3,0-0.5,0.1-0.5,0.4c0,0.3,0.2,0.4,0.5,0.4l8.4,0c0,0,1.2-0.2,2.1,0.6
	c0.6,0.5,0.8,1.4,0.8,2.5v9.3c0,0.3,0.2,0.5,0.5,0.5s0.5-0.2,0.5-0.5v-9.3C23,9.4,22.7,8.4,21.9,7.7z"/>
<path d="M19.2,8.8H8.8c-1.1,0-2.1,0.9-2.1,2.1v10.4c0,1.1,0.9,2.1,2.1,2.1h10.4c1.1,0,2.1-0.9,2.1-2.1V10.8
	C21.3,9.7,20.4,8.8,19.2,8.8z M17.2,18.8h-6.4c-0.3,0-0.5-0.2-0.5-0.5s0.2-0.5,0.5-0.5h6.4c0.3,0,0.5,0.2,0.5,0.5
	S17.5,18.8,17.2,18.8z M17.2,16.5h-6.4c-0.3,0-0.5-0.2-0.5-0.5s0.2-0.5,0.5-0.5h6.4c0.3,0,0.5,0.2,0.5,0.5S17.5,16.5,17.2,16.5z
	 M17.2,14.3h-6.4c-0.3,0-0.5-0.2-0.5-0.5s0.2-0.5,0.5-0.5h6.4c0.3,0,0.5,0.2,0.5,0.5S17.5,14.3,17.2,14.3z"/>
</svg>
