<svg xmlns="http://www.w3.org/2000/svg" viewBox="0 0 30 30" enable-background="new 0 0 30 30">
<g>
	<path d="M20,7H10c-1.7,0-3,1.3-3,3v10c0,1.6,1.3,3,3,3h10c1.7,0,3-1.4,3-3V10C23,8.3,21.7,7,20,7z M18.5,18h-7
		c-0.3,0-0.5-0.2-0.5-0.5c0-0.3,0.2-0.5,0.5-0.5h7c0.3,0,0.5,0.2,0.5,0.5C19,17.8,18.8,18,18.5,18z M18.5,15.5h-7
		c-0.3,0-0.5-0.2-0.5-0.5c0-0.3,0.2-0.5,0.5-0.5h7c0.3,0,0.5,0.2,0.5,0.5C19,15.3,18.8,15.5,18.5,15.5z M18.5,13h-7
		c-0.3,0-0.5-0.2-0.5-0.5c0-0.3,0.2-0.5,0.5-0.5h7c0.3,0,0.5,0.2,0.5,0.5C19,12.8,18.8,13,18.5,13z"/>
</g>
</svg>
