<?xml version="1.0" encoding="utf-8"?>
<!-- Generator: Adobe Illustrator 20.1.0, SVG Export Plug-In . SVG Version: 6.00 Build 0)  -->
<svg version="1.1" id="Calque_1" xmlns="http://www.w3.org/2000/svg" xmlns:xlink="http://www.w3.org/1999/xlink" x="0px" y="0px"
	 viewBox="0 0 30 30" enable-background="new 0 0 30 30" xml:space="preserve">
<g>
	<path d="M19.2,8.8H8.8c-1.1,0-2.1,0.9-2.1,2.1v10.4c0,1.1,0.9,2.1,2.1,2.1h10.4c1.1,0,2.1-0.9,2.1-2.1V10.8
		C21.3,9.7,20.4,8.8,19.2,8.8z M20.3,21.2c0,0.6-0.5,1-1,1H8.8c-0.6,0-1-0.5-1-1V10.8c0-0.6,0.5-1,1-1h10.4c0.6,0,1,0.5,1,1V21.2z"
		/>
	<path d="M21.9,7.7C20.7,6.6,19.2,7,19.2,7h-8.3c-0.3,0-0.5,0.1-0.5,0.4c0,0.3,0.2,0.4,0.5,0.4l8.4,0c0,0,1.2-0.2,2.1,0.6
		c0.6,0.5,0.8,1.4,0.8,2.5v9.3c0,0.3,0.2,0.5,0.5,0.5s0.5-0.2,0.5-0.5v-9.3C23,9.4,22.7,8.4,21.9,7.7z"/>
	<path d="M17.2,15.5h-6.4c-0.3,0-0.5,0.2-0.5,0.5s0.2,0.5,0.5,0.5h6.4c0.3,0,0.5-0.2,0.5-0.5S17.5,15.5,17.2,15.5z"/>
	<path d="M17.2,17.8h-6.4c-0.3,0-0.5,0.2-0.5,0.5s0.2,0.5,0.5,0.5h6.4c0.3,0,0.5-0.2,0.5-0.5S17.5,17.8,17.2,17.8z"/>
	<path d="M17.2,13.3h-6.4c-0.3,0-0.5,0.2-0.5,0.5s0.2,0.5,0.5,0.5h6.4c0.3,0,0.5-0.2,0.5-0.5S17.5,13.3,17.2,13.3z"/>
</g>
</svg>
