<svg xmlns="http://www.w3.org/2000/svg" viewBox="0 0 50 50" enable-background="new 0 0 50 50"><g><path d="M25 0c-13.8 0-25 11.2-25 25s11.2 25 25 25 25-11.2 25-25-11.2-25-25-25zm0 48c-12.7 0-23-10.3-23-23s10.3-23 23-23 23 10.3 23 23-10.3 23-23 23zM26.4 33.5h-2.7c-.2 0-.4.1-.4.4v3.1c0 .2.1.4.4.4h2.7c.2 0 .4-.1.4-.4v-3.1c0-.3-.1-.4-.4-.4zM25.3 12.5c-3.7 0-6.2 2.3-6.7 5.7 0 .2.1.4.3.4l2.3.4c.2 0 .4-.1.4-.3.4-2.2 1.7-3.4 3.7-3.4s3.5 1.3 3.5 3.3c0 1.2-.4 2-1.7 3.8l-2.4 3.3c-.8 1-1.1 1.8-1.1 3.2v1.5c0 .2.1.4.4.4h2.4c.2 0 .4-.1.4-.4v-1.1c0-1.2.2-1.7.9-2.7l2.4-3.3c1.2-1.7 1.8-2.9 1.8-4.7-.1-3.5-2.7-6.1-6.6-6.1z"/></g></svg>