<svg xmlns="http://www.w3.org/2000/svg" width="30" height="30" viewBox="0 0 30 30" enable-background="new 0 0 30 30"><path d="M18.2 11.3c-.1 0-.3 0-.4-.1l-2.8-2.9-2.8 2.8c-.2.2-.5.2-.7 0-.2-.2-.2-.5 0-.7l3.2-3.2c.2-.2.5-.2.7 0l3.2 3.2c.2.2.2.5 0 .7-.1.2-.3.2-.4.2zM15 17.1c-.3 0-.5-.2-.5-.5v-8.5c0-.3.2-.5.5-.5s.5.2.5.5v8.5c0 .3-.2.5-.5.5zM20.3 23h-10.6c-1.5 0-2.7-1.2-2.7-2.7v-2.1c0-.3.2-.5.5-.5s.5.2.5.5v2.1c0 .9.7 1.6 1.6 1.6h10.7c.9 0 1.6-.7 1.6-1.6v-2.1c0-.3.2-.5.5-.5s.5.2.5.5v2.1c.1 1.6-1 2.7-2.6 2.7zM7 19.3v-8.7c0-.3.2-.5.5-.5s.5.2.5.5v8.7c0 .3-.2.5-.5.5s-.5-.1-.5-.5zM21.9 19.3v-8.7c0-.3.2-.5.5-.5s.5.2.5.5v8.7c0 .3-.2.5-.5.5s-.5-.1-.5-.5z"/></svg>
