<svg xmlns="http://www.w3.org/2000/svg" viewBox="0 0 50 50" enable-background="new 0 0 50 50"><path d="M25 0c-13.8 0-25 11.2-25 25s11.2 25 25 25 25-11.2 25-25-11.2-25-25-25zm15.6 41.9c-3.8-2.7-9.5-3.2-10.7-6.3-.1-1.6-.1-2.7-.1-4.2.7-.4 2-2.8 2.3-4.9.6 0 1.5-.6 1.7-2.8.1-1.2-.4-1.9-.8-2.1 1-2.9 2.9-11.6-3.5-12.5-.7-1.2-2.4-1.8-4.6-1.8-8.9.2-9.9 6.7-8 14.2-.3.2-.9.9-.8 2.1.3 2.2 1.2 2.8 1.7 2.8.2 2.1 1.6 4.5 2.3 4.9 0 1.5.1 2.6-.1 4.2-1.2 3.2-6.9 3.6-10.7 6.3-4.5-4.1-7.3-10.1-7.3-16.8 0-12.7 10.3-23 23-23s23 10.3 23 23c0 6.7-2.8 12.7-7.4 16.9z"/></svg>