<svg version="1.1" id="Calque_1" xmlns="http://www.w3.org/2000/svg" xmlns:xlink="http://www.w3.org/1999/xlink" x="0px" y="0px"
	 width="30px" height="30px" viewBox="0 0 30 30" enable-background="new 0 0 30 30" xml:space="preserve">
<path d="M22.1,17c-1.5-1.4-1.3-1.2,0.5-3.6c1.1-1.5,1.5-2.4,1.4-2.8c-0.1-0.4-0.9-0.3-0.9-0.3l-2.7,0c0,0-0.2,0-0.3,0.1
	c-0.1,0.1-0.2,0.3-0.2,0.3s-0.4,1.1-1,2.1c-1.2,2-1.7,2.2-1.9,2c-0.5-0.3-0.3-1.2-0.3-1.8c0-2,0.3-2.8-0.6-3
	c-0.3-0.1-0.5-0.1-1.3-0.1c-1,0-1.8,0-2.2,0.2c-0.3,0.2-0.5,0.5-0.4,0.5c0.2,0,0.6,0.1,0.8,0.4c0.3,0.4,0.3,1.2,0.3,1.2
	s0.2,2.3-0.4,2.6c-0.4,0.2-0.9-0.2-1.9-2.1c-0.6-1-1-2-1-2s-0.1-0.2-0.2-0.3c-0.2-0.1-0.4-0.2-0.4-0.2l-2.6,0c0,0-0.4,0-0.5,0.2
	C5.9,10.7,6,11,6,11s2,4.7,4.3,7.1c2.1,2.2,4.5,2,4.5,2h1.1c0,0,0.3,0,0.5-0.2c0.2-0.2,0.1-0.5,0.1-0.5s0-1.4,0.6-1.7
	c0.7-0.2,1.5,1.4,2.4,2c0.7,0.5,1.2,0.4,1.2,0.4l2.4,0c0,0,1.3-0.1,0.7-1.1C23.8,18.9,23.5,18.3,22.1,17z"/>
</svg>
