<svg xmlns="http://www.w3.org/2000/svg" viewBox="0 0 50 50" enable-background="new 0 0 50 50"><path d="M25 50c13.8 0 25-11.2 25-25s-11.2-25-25-25-25 11.2-25 25 11.2 25 25 25zm-16.9-9.4c1.7-.9 3.7-1.6 5.8-2.2 1.2 3.7 2.9 6.8 4.9 8.8-4.1-1.2-7.8-3.5-10.7-6.6zm15.9-5.6c-3 .1-5.9.4-8.6 1-.8-3-1.3-6.4-1.4-10h10v9zm0 2v10.9c-3.3-.7-6.2-4.5-8-10 2.5-.5 5.2-.8 8-.9zm2 10.9v-10.9c2.8.1 5.5.4 8 .9-1.8 5.5-4.7 9.3-8 10zm0-12.9v-9h10c-.1 3.6-.6 7-1.4 10-2.7-.6-5.6-.9-8.6-1zm12-9h10c-.2 4.9-2 9.4-4.8 13.1-1.9-1.1-4.1-1.9-6.6-2.6.8-3.2 1.3-6.7 1.4-10.5zm0-2c-.1-3.8-.6-7.3-1.4-10.5 2.4-.7 4.7-1.5 6.6-2.6 2.8 3.7 4.6 8.2 4.8 13.1h-10zm-2 0h-10v-9c3-.1 5.9-.4 8.6-1 .8 3 1.3 6.4 1.4 10zm-10-11v-10.9c3.3.7 6.2 4.5 8 10-2.5.5-5.2.8-8 .9zm-2-10.9v10.9c-2.8-.1-5.5-.4-8-.9 1.8-5.5 4.7-9.3 8-10zm0 12.9v9h-10c.1-3.6.6-7 1.4-10 2.7.6 5.6.9 8.6 1zm-12 9h-10c.2-4.9 2-9.4 4.8-13.1 1.9 1.1 4.1 1.9 6.6 2.6-.8 3.2-1.3 6.7-1.4 10.5zm0 2c.1 3.8.6 7.3 1.4 10.5-2.4.6-4.7 1.5-6.6 2.6-2.8-3.7-4.6-8.2-4.8-13.1h10zm19.1 21.2c2-2 3.7-5.1 4.9-8.8 2.2.6 4.1 1.3 5.8 2.2-2.8 3.1-6.5 5.4-10.7 6.6zm10.8-37.8c-1.7.9-3.7 1.6-5.8 2.2-1.2-3.7-2.9-6.8-4.9-8.8 4.1 1.2 7.8 3.5 10.7 6.6zm-23-6.6c-2 2-3.7 5.1-4.9 8.8-2.2-.6-4.1-1.3-5.8-2.2 2.8-3.1 6.5-5.4 10.7-6.6z"/></svg>