<?xml version="1.0" encoding="utf-8"?>
<!-- Generator: Adobe Illustrator 20.0.0, SVG Export Plug-In . SVG Version: 6.00 Build 0)  -->
<!DOCTYPE svg PUBLIC "-//W3C//DTD SVG 1.1//EN" "http://www.w3.org/Graphics/SVG/1.1/DTD/svg11.dtd">
<svg version="1.1" id="Calque_1" xmlns="http://www.w3.org/2000/svg" xmlns:xlink="http://www.w3.org/1999/xlink" x="0px" y="0px"
	 width="30px" height="30px" viewBox="0 0 30 30" enable-background="new 0 0 30 30" xml:space="preserve">
<g>
	<path d="M22.9,22.1l-4.8-4.8c0.9-1.1,1.5-2.5,1.5-4c0-3.4-2.9-6.3-6.3-6.3S7,9.9,7,13.3c0,3.4,2.9,6.3,6.3,6.3c1.5,0,2.9-0.5,4-1.4
		l4.7,4.7c0.3,0.3,0.7,0.2,0.9,0C23.1,22.6,23.1,22.3,22.9,22.1z M13.3,18.4c-2.9,0-5.1-2.3-5.1-5.1c0-2.9,2.3-5.1,5.1-5.1
		s5.1,2.3,5.1,5.1C18.4,16.1,16.1,18.4,13.3,18.4z"/>
	<path d="M16.3,13.8h-6c-0.3,0-0.5-0.2-0.5-0.5s0.2-0.5,0.5-0.5h6c0.3,0,0.5,0.2,0.5,0.5S16.6,13.8,16.3,13.8z"/>
</g>
</svg>
