<?xml version="1.0" encoding="utf-8"?>
<!-- Generator: Adobe Illustrator 20.1.0, SVG Export Plug-In . SVG Version: 6.00 Build 0)  -->
<!DOCTYPE svg PUBLIC "-//W3C//DTD SVG 1.1//EN" "http://www.w3.org/Graphics/SVG/1.1/DTD/svg11.dtd">
<svg version="1.1" id="Calque_1" xmlns="http://www.w3.org/2000/svg" xmlns:xlink="http://www.w3.org/1999/xlink" x="0px" y="0px"
	 width="30px" height="30px" viewBox="0 0 30 30" enable-background="new 0 0 30 30" xml:space="preserve">
<path d="M16.8,10c0-0.7,0.5-0.9,0.8-0.9c0.3,0,2,0,2,0V6l-2.8,0c-3.1,0-3.8,2.3-3.8,3.8v2.1h-1.8V15h1.8c0,4.1,0,9,0,9h3.7
	c0,0,0-5,0-9h2.5l0.3-3.2h-2.8V10z"/>
<g>
	<path d="M14,12.5c-0.3,0-0.5,0.2-0.5,0.5v7c0,0.3,0.2,0.5,0.5,0.5s0.5-0.2,0.5-0.5v-7C14.5,12.7,14.3,12.5,14,12.5L14,12.5z"/>
</g>
</svg>
