<?xml version="1.0" encoding="utf-8"?>
<!-- Generator: Adobe Illustrator 20.1.0, SVG Export Plug-In . SVG Version: 6.00 Build 0)  -->
<!DOCTYPE svg PUBLIC "-//W3C//DTD SVG 1.1//EN" "http://www.w3.org/Graphics/SVG/1.1/DTD/svg11.dtd">
<svg version="1.1" id="Calque_1" xmlns="http://www.w3.org/2000/svg" xmlns:xlink="http://www.w3.org/1999/xlink" x="0px" y="0px"
	 width="30px" height="30px" viewBox="0 0 30 30" enable-background="new 0 0 30 30" xml:space="preserve">
<g>
	<path fill="none" d="M18.4,11.2h2.4L17.4,7l-0.3,0v2.9C17.1,10.6,17.7,11.2,18.4,11.2z"/>
	<path fill="none" d="M16.2,9.9V7l-5.4,0c-1,0-1.9,0.9-1.9,2v12c0,1.1,0.8,2,1.9,2h8.4c1,0,1.9-0.9,1.9-2v-8.9h-2.7
		C17.2,12.1,16.2,11.1,16.2,9.9z"/>
	<path d="M17.8,6l-7,0C9.3,6,8,7.3,8,9v12c0,1.7,1.3,3,2.8,3h8.4c1.5,0,2.8-1.3,2.8-3v-9.8L17.8,6z M17.1,7l0.3,0l3.4,4.2h-2.4
		c-0.7,0-1.2-0.6-1.2-1.2V7z M21.1,21c0,1.1-0.8,2-1.9,2h-8.4c-1,0-1.9-0.9-1.9-2V9c0-1.1,0.8-2,1.9-2l5.4,0v2.9
		c0,1.2,1,2.2,2.1,2.2h2.7V21z"/>
</g>
</svg>
