<?xml version="1.0" encoding="utf-8"?>
<!-- Generator: Adobe Illustrator 20.1.0, SVG Export Plug-In . SVG Version: 6.00 Build 0)  -->
<!DOCTYPE svg PUBLIC "-//W3C//DTD SVG 1.1//EN" "http://www.w3.org/Graphics/SVG/1.1/DTD/svg11.dtd">
<svg version="1.1" id="Calque_1" xmlns="http://www.w3.org/2000/svg" xmlns:xlink="http://www.w3.org/1999/xlink" x="0px" y="0px"
	 width="30px" height="30px" viewBox="0 0 30 30" enable-background="new 0 0 30 30" xml:space="preserve">
<path d="M20.7,8.6h-7.8l-0.1-0.6c-0.1-0.5-0.6-1-1.1-0.9L7,7C6.5,7,6,7.4,6,8v6c0,0,0,0.1,0,0.1v6C6,21.7,7.4,23,9,23h12
	c1.7,0,3-1.3,3-2.9v-5.8v-0.3V12C24,10.1,22.5,8.6,20.7,8.6z M11.7,8L12,9.5h1l0,0h7.7c1.2,0,2.3,1.1,2.3,2.4
	c-0.5-0.5-1.2-0.8-2-0.8H9c-0.8,0-1.5,0.3-2,0.7V8H11.7z M23,20.1c0,1.1-0.9,1.9-2,1.9H9c-1.1,0-2-0.9-2-1.9v-3.7h0v-2.5
	c0.1-1,0.9-1.8,2-1.8h12c1.1,0,2,0.9,2,1.9v0.3V20.1z"/>
</svg>
