<?xml version="1.0" encoding="utf-8"?>
<!-- Generator: Adobe Illustrator 20.1.0, SVG Export Plug-In . SVG Version: 6.00 Build 0)  -->
<!DOCTYPE svg PUBLIC "-//W3C//DTD SVG 1.1//EN" "http://www.w3.org/Graphics/SVG/1.1/DTD/svg11.dtd">
<svg version="1.1" id="Calque_1" xmlns="http://www.w3.org/2000/svg" xmlns:xlink="http://www.w3.org/1999/xlink" x="0px" y="0px"
	 width="30px" height="30px" viewBox="0 0 30 30" enable-background="new 0 0 30 30" xml:space="preserve">
<path d="M15,15L15,15C15,15,15,15,15,15L15,15z"/>
<path d="M15,15L15,15C15,15,15,15,15,15L15,15z"/>
<path d="M19,8c-2,0-3,0.9-4,2.8C14,9,13,8,11,8c-2.2,0-4,1.7-4,3.8c0,2.5,1.8,5.1,4.2,7.6l3,3.3c0,0,0.3,0.3,0.9,0.3v0c0,0,0,0,0,0
	s0,0,0,0v0c0.5,0,0.9-0.3,0.9-0.3l2.9-3.3c2.4-2.6,4.3-5.1,4.3-7.7C23,9.7,21.2,8,19,8z"/>
</svg>
