<?xml version="1.0" encoding="utf-8"?>
<!-- Generator: Adobe Illustrator 20.1.0, SVG Export Plug-In . SVG Version: 6.00 Build 0)  -->
<!DOCTYPE svg PUBLIC "-//W3C//DTD SVG 1.1//EN" "http://www.w3.org/Graphics/SVG/1.1/DTD/svg11.dtd">
<svg version="1.1" id="Calque_1" xmlns="http://www.w3.org/2000/svg" xmlns:xlink="http://www.w3.org/1999/xlink" x="0px" y="0px"
	 width="30px" height="30px" viewBox="0 0 30 30" enable-background="new 0 0 30 30" xml:space="preserve">
<path d="M15,15.6L15,15.6C15,15.5,15,15.5,15,15.6L15,15.6z"/>
<path d="M15,15.6L15,15.6C15,15.5,15,15.5,15,15.6L15,15.6z"/>
<g>
	<path d="M19,9c1.7,0,3,1.2,3,2.8c0,1.9-1.2,4.1-4,7L15.2,22c0,0-0.1,0-0.2,0c0,0,0,0,0,0c-0.1,0-0.1,0-0.2,0L12,18.7
		c-2.7-2.9-3.9-5-3.9-6.9C8,10.3,9.4,9,11,9c1.5,0,2.2,0.5,3.1,2.3c0.2,0.3,0.5,0.5,0.9,0.5c0.4,0,0.7-0.2,0.9-0.5
		C16.8,9.6,17.6,9,19,9 M15.2,21.9L15.2,21.9L15.2,21.9L15.2,21.9 M19,8c-2,0-3,0.9-4,2.8C14,9,13.1,8,11,8c-2.2,0-4,1.7-4,3.8
		c0,2.5,1.8,5.1,4.2,7.6l3,3.3c0,0,0.3,0.3,0.9,0.3v0l0,0l0,0v0c0.5,0,0.9-0.3,0.9-0.3l2.9-3.3c2.4-2.6,4.3-5.1,4.3-7.7
		C23,9.7,21.2,8,19,8L19,8z"/>
</g>
</svg>
