<?xml version="1.0" encoding="utf-8"?>
<!-- Generator: Adobe Illustrator 20.1.0, SVG Export Plug-In . SVG Version: 6.00 Build 0)  -->
<!DOCTYPE svg PUBLIC "-//W3C//DTD SVG 1.1//EN" "http://www.w3.org/Graphics/SVG/1.1/DTD/svg11.dtd">
<svg version="1.1" id="Calque_1" xmlns="http://www.w3.org/2000/svg" xmlns:xlink="http://www.w3.org/1999/xlink" x="0px" y="0px"
	 width="30px" height="30px" viewBox="0 0 30 30" enable-background="new 0 0 30 30" xml:space="preserve">
<g>
	<path d="M12.5,15c1.4,0,2.5-1.1,2.5-2.5c0-1.4-1.1-2.5-2.5-2.5c-1.4,0-2.5,1.1-2.5,2.5C10,13.9,11.1,15,12.5,15z M12.5,11
		c0.8,0,1.5,0.7,1.5,1.5S13.3,14,12.5,14S11,13.3,11,12.5S11.7,11,12.5,11z"/>
	<path d="M20,7H10c-1.6,0-3,1.3-3,3v10c0,1.7,1.4,3,3,3h10c1.7,0,3-1.3,3-3V10C23,8.3,21.7,7,20,7z M10,8h10c1.1,0,2,0.9,2,2v6.8
		l-2.5-2.5l-4,4.4L12,16.4l-4,3.4V10C8,8.9,8.9,8,10,8z M20,22H10c-0.8,0-1.4-0.4-1.8-1.1l3.9-3.3l3.5,2.3l3.9-4.2l2.5,2.5l0,0V20
		C22,21.1,21.1,22,20,22z"/>
</g>
</svg>
