<?xml version="1.0" encoding="utf-8"?>
<!-- Generator: Adobe Illustrator 20.1.0, SVG Export Plug-In . SVG Version: 6.00 Build 0)  -->
<!DOCTYPE svg PUBLIC "-//W3C//DTD SVG 1.1//EN" "http://www.w3.org/Graphics/SVG/1.1/DTD/svg11.dtd">
<svg version="1.1" id="Calque_1" xmlns="http://www.w3.org/2000/svg" xmlns:xlink="http://www.w3.org/1999/xlink" x="0px" y="0px"
	 width="30px" height="30px" viewBox="0 0 30 30" enable-background="new 0 0 30 30" xml:space="preserve">
<path d="M15.2,7c-4.4,0-8,3.6-8,8s3.6,8,8,8s8-3.6,8-8S19.6,7,15.2,7z M15.1,19.5c0,0-0.6,0.2-0.9,0.2c0,0-0.3,0-0.3,0v0
	c0,0,0.1,0,0.1,0l0,0c-0.4-0.1-0.6-0.5-0.5-1l0.6-2.5l0.3-1.1c0.3-1-0.8,0.2-1-0.3c-0.1-0.3,0.8-1,1.6-1.5c0,0,0.5-0.2,0.8-0.2
	c0,0,0.2,0,0.2,0v0c0,0,0,0,0,0l0,0c0.4,0.1,0.7,0.6,0.6,1L16,16.6l-0.3,1.1c-0.3,1,0.8-0.2,1,0.3C16.9,18.3,15.9,19,15.1,19.5z
	 M16.7,11.7c-0.2,0.6-0.8,1-1.4,0.8c-0.6-0.2-1-0.8-0.8-1.4s0.8-1,1.4-0.8C16.5,10.5,16.9,11.1,16.7,11.7z"/>
</svg>
