<?xml version="1.0" encoding="utf-8"?>
<!-- Generator: Adobe Illustrator 20.1.0, SVG Export Plug-In . SVG Version: 6.00 Build 0)  -->
<!DOCTYPE svg PUBLIC "-//W3C//DTD SVG 1.1//EN" "http://www.w3.org/Graphics/SVG/1.1/DTD/svg11.dtd">
<svg version="1.1" id="Calque_1" xmlns="http://www.w3.org/2000/svg" xmlns:xlink="http://www.w3.org/1999/xlink" x="0px" y="0px"
	 width="30px" height="30px" viewBox="0 0 30 30" enable-background="new 0 0 30 30" xml:space="preserve">
<path d="M21.2,7H8.8C7.8,7,7,7.8,7,8.8v12.3c0,1,0.8,1.8,1.8,1.8h12.3c1,0,1.8-0.8,1.8-1.8V8.8C23,7.8,22.2,7,21.2,7z M15,11.9
	c1.7,0,3.1,1.4,3.1,3.1c0,1.7-1.4,3.1-3.1,3.1c-1.7,0-3.1-1.4-3.1-3.1C11.9,13.3,13.3,11.9,15,11.9z M21.2,20.5
	c0,0.3-0.3,0.6-0.6,0.6H9.5c-0.3,0-0.6-0.3-0.6-0.6v-6.8h1.4c-0.1,0.4-0.2,0.8-0.2,1.2c0,2.7,2.2,4.9,4.9,4.9c2.7,0,4.9-2.2,4.9-4.9
	c0-0.4-0.1-0.8-0.2-1.2h1.4V20.5z M21.2,11.3c0,0.3-0.3,0.6-0.6,0.6h-1.8c-0.3,0-0.6-0.3-0.6-0.6V9.5c0-0.3,0.3-0.6,0.6-0.6h1.8
	c0.3,0,0.6,0.3,0.6,0.6V11.3z"/>
</svg>
