<?xml version="1.0" encoding="utf-8"?>
<!-- Generator: Adobe Illustrator 20.1.0, SVG Export Plug-In . SVG Version: 6.00 Build 0)  -->
<!DOCTYPE svg PUBLIC "-//W3C//DTD SVG 1.1//EN" "http://www.w3.org/Graphics/SVG/1.1/DTD/svg11.dtd">
<svg version="1.1" id="Calque_1" xmlns="http://www.w3.org/2000/svg" xmlns:xlink="http://www.w3.org/1999/xlink" x="0px" y="0px"
	 width="30px" height="30px" viewBox="0 0 30 30" enable-background="new 0 0 30 30" xml:space="preserve">
<g>
	<path d="M21,9.1c-1.3-1.3-3.5-1.1-5,0.4l0,0l-2.1,2.1c0,0,0,0,0,0l0,0c-0.2,0.2-0.3,0.4-0.5,0.6c0,0.1-0.1,0.1-0.1,0.2
		c-0.1,0.1-0.2,0.3-0.3,0.4c0,0.1-0.1,0.2-0.1,0.3c-0.1,0.1-0.1,0.3-0.1,0.4c0,0.1,0,0.2-0.1,0.3c0,0.1,0,0.2-0.1,0.3
		c0,0.1,0,0.3,0,0.4c0,0.1,0,0.2,0,0.2c0,0.1,0,0.3,0.1,0.4c0,0.1,0,0.1,0,0.2c0,0.2,0.1,0.3,0.2,0.4c0,0,0,0.1,0.1,0.1
		c0.1,0.1,0.1,0.3,0.2,0.4c0,0,0,0,0,0l0,0c0.1,0.1,0.2,0.2,0.2,0.3c0.3,0.3,0.7,0.5,1.1,0.7l0.1-1.1c-0.1-0.1-0.3-0.2-0.4-0.3
		c-0.1-0.1-0.2-0.2-0.3-0.3c0,0-0.1-0.1-0.1-0.1c0-0.1-0.1-0.2-0.1-0.3c0-0.1,0-0.1-0.1-0.2c0-0.1,0-0.2-0.1-0.3c0-0.1,0-0.1,0-0.2
		c0-0.1,0-0.2,0-0.3c0-0.1,0-0.1,0-0.2c0-0.1,0-0.2,0.1-0.3c0-0.1,0-0.1,0-0.2c0-0.1,0.1-0.2,0.1-0.3c0,0,0-0.1,0.1-0.1
		c0.1-0.1,0.1-0.2,0.2-0.3c0,0,0-0.1,0.1-0.1c0.1-0.1,0.2-0.3,0.3-0.4l2.1-2.1c1.1-1.1,2.7-1.2,3.6-0.3c0.9,0.9,0.8,2.5-0.3,3.6
		l-1.2,1.2l0.7,0.7l1.2-1.2C22.1,12.6,22.3,10.4,21,9.1z"/>
	<path d="M17.3,15.1c0-0.1,0-0.1,0-0.2c0-0.2-0.1-0.3-0.2-0.4c0,0,0-0.1-0.1-0.1c-0.1-0.1-0.2-0.3-0.2-0.4c0,0,0,0,0,0l0,0
		c-0.1-0.1-0.2-0.2-0.2-0.3c-0.3-0.3-0.7-0.5-1.1-0.7L15.4,14c0.1,0.1,0.3,0.2,0.4,0.3c0.1,0.1,0.2,0.2,0.3,0.3c0,0,0.1,0.1,0.1,0.1
		c0,0.1,0.1,0.2,0.1,0.3c0,0.1,0,0.1,0.1,0.2c0,0.1,0,0.2,0.1,0.3c0,0.1,0,0.1,0,0.2c0,0.1,0,0.2,0,0.3c0,0.1,0,0.1,0,0.2
		c0,0.1,0,0.2-0.1,0.3c0,0.1,0,0.1,0,0.2c0,0.1-0.1,0.2-0.1,0.3c0,0,0,0.1-0.1,0.1c-0.1,0.1-0.1,0.2-0.2,0.3c0,0,0,0.1-0.1,0.1
		c-0.1,0.1-0.2,0.3-0.3,0.4L13.4,20c-1.1,1.1-2.7,1.2-3.6,0.3c-0.9-0.9-0.8-2.5,0.3-3.6l1.2-1.2l-0.7-0.7l-1.2,1.2
		c-1.5,1.5-1.7,3.7-0.4,5c1.3,1.3,3.5,1.1,5-0.4l0,0l2.1-2.1c0,0,0,0,0,0l0,0c0.2-0.2,0.3-0.4,0.5-0.6c0-0.1,0.1-0.1,0.1-0.2
		c0.1-0.1,0.2-0.3,0.3-0.4c0-0.1,0.1-0.2,0.1-0.3c0.1-0.1,0.1-0.3,0.1-0.4c0-0.1,0-0.2,0.1-0.3c0-0.1,0-0.2,0.1-0.3
		c0-0.1,0-0.3,0-0.4c0-0.1,0-0.2,0-0.2C17.4,15.3,17.3,15.2,17.3,15.1z"/>
</g>
</svg>
