<?xml version="1.0" encoding="utf-8"?>
<!-- Generator: Adobe Illustrator 20.1.0, SVG Export Plug-In . SVG Version: 6.00 Build 0)  -->
<!DOCTYPE svg PUBLIC "-//W3C//DTD SVG 1.1//EN" "http://www.w3.org/Graphics/SVG/1.1/DTD/svg11.dtd">
<svg version="1.1" id="Calque_1" xmlns="http://www.w3.org/2000/svg" xmlns:xlink="http://www.w3.org/1999/xlink" x="0px" y="0px"
	 width="30px" height="30px" viewBox="0 0 30 30" enable-background="new 0 0 30 30" xml:space="preserve">
<g>
	<circle cx="7.6" cy="9.6" r="0.6"/>
	<g>
		<path d="M22.4,15.6h-9.8c-0.4,0-0.6-0.2-0.6-0.6c0-0.4,0.2-0.6,0.6-0.6h9.8c0.4,0,0.6,0.2,0.6,0.6C23,15.4,22.8,15.6,22.4,15.6z"
			/>
	</g>
	<g>
		<path d="M22.4,21h-9.8c-0.4,0-0.6-0.2-0.6-0.6s0.2-0.6,0.6-0.6h9.8c0.4,0,0.6,0.2,0.6,0.6S22.8,21,22.4,21z"/>
	</g>
	<g>
		<path d="M22.4,10.2h-9.8c-0.4,0-0.6-0.2-0.6-0.6C12,9.2,12.2,9,12.6,9h9.8C22.8,9,23,9.2,23,9.6C23,10,22.8,10.2,22.4,10.2z"/>
	</g>
	<circle cx="7.6" cy="15" r="0.6"/>
	<circle cx="7.6" cy="20.4" r="0.6"/>
</g>
</svg>
