<?xml version="1.0" encoding="utf-8"?>
<!-- Generator: Adobe Illustrator 20.1.0, SVG Export Plug-In . SVG Version: 6.00 Build 0)  -->
<!DOCTYPE svg PUBLIC "-//W3C//DTD SVG 1.1//EN" "http://www.w3.org/Graphics/SVG/1.1/DTD/svg11.dtd">
<svg version="1.1" id="Calque_1" xmlns="http://www.w3.org/2000/svg" xmlns:xlink="http://www.w3.org/1999/xlink" x="0px" y="0px"
	 width="30px" height="30px" viewBox="0 0 30 30" enable-background="new 0 0 30 30" xml:space="preserve">
<path d="M21,8h-12c-1.7,0-3,1.4-3,3.1v7.8c0,1.7,1.3,3.1,3,3.1H21c1.7,0,3.1-1.5,3.1-3.1v-7.8C24.1,9.4,22.7,8,21,8z M22.9,19.4
	l-3.7-4.7l3.8-2.3V19C23,19.1,23,19.3,22.9,19.4z M9.1,9.2h12c0.9,0,1.8,0.8,1.9,1.8l-6.8,4.2c-0.6,0.4-1.7,0.4-2.4,0l-6.5-4v0
	C7.3,10.2,8.2,9.2,9.1,9.2z M7.3,19.2c0-0.1,0-0.2,0-0.3v-6.4l3.6,2.2L7.3,19.2z M9.1,20.9c-0.5,0-0.9-0.2-1.3-0.6l3.9-5l1.4,0.9
	c0.6,0.3,1.1,0.4,1.8,0.4c0.7,0,1.4-0.1,1.8-0.4l1.4-0.9l4,5.1c-0.3,0.3-0.7,0.5-1.2,0.5H9.1z"/>
</svg>
