<?xml version="1.0" encoding="utf-8"?>
<!-- Generator: Adobe Illustrator 20.1.0, SVG Export Plug-In . SVG Version: 6.00 Build 0)  -->
<!DOCTYPE svg PUBLIC "-//W3C//DTD SVG 1.1//EN" "http://www.w3.org/Graphics/SVG/1.1/DTD/svg11.dtd">
<svg version="1.1" id="Calque_1" xmlns="http://www.w3.org/2000/svg" xmlns:xlink="http://www.w3.org/1999/xlink" x="0px" y="0px"
	 width="30px" height="30px" viewBox="0 0 30 30" enable-background="new 0 0 30 30" xml:space="preserve">
<g>
	<path d="M22.1,9.8v10.4h-0.9V9.8H22.1 M22.6,8.8h-1.9c-0.3,0-0.5,0.2-0.5,0.5v11.4c0,0.3,0.2,0.5,0.5,0.5h1.9
		c0.3,0,0.5-0.2,0.5-0.5V9.3C23.1,9,22.9,8.8,22.6,8.8L22.6,8.8z"/>
</g>
<g>
	<path d="M7.7,13.1v3.7H6.8v-3.7H7.7 M8.2,12.1H6.3c-0.3,0-0.5,0.2-0.5,0.5v4.7c0,0.3,0.2,0.5,0.5,0.5h1.9c0.3,0,0.5-0.2,0.5-0.5
		v-4.7C8.7,12.3,8.5,12.1,8.2,12.1L8.2,12.1z"/>
</g>
<path d="M20.7,20.5c0,0-0.1,0-0.1,0l-12.4-3c-0.2-0.1-0.4-0.3-0.4-0.5v-4c0-0.2,0.2-0.4,0.4-0.5l12.4-3c0.1,0,0.3,0,0.4,0.1
	c0.1,0.1,0.2,0.2,0.2,0.4v10c0,0.2-0.1,0.3-0.2,0.4C20.9,20.4,20.8,20.5,20.7,20.5z M8.8,16.6l11.4,2.8v-8.8L8.8,13.4V16.6z"/>
<g>
	<path d="M14.6,21.8c-0.1,0-0.1,0-0.2,0l-3.9-1c-0.5-0.1-0.7-0.6-0.6-1.1l0.5-1.9c0.1-0.3,0.3-0.4,0.6-0.4c0.3,0.1,0.4,0.3,0.4,0.6
		l-0.4,1.8l3.7,0.9l0.4-1.8c0.1-0.3,0.3-0.4,0.6-0.4c0.3,0.1,0.4,0.3,0.4,0.6L15.5,21c-0.1,0.2-0.2,0.4-0.4,0.6
		C15,21.7,14.8,21.8,14.6,21.8z"/>
</g>
</svg>
