<?xml version="1.0" encoding="utf-8"?>
<!-- Generator: Adobe Illustrator 20.1.0, SVG Export Plug-In . SVG Version: 6.00 Build 0)  -->
<!DOCTYPE svg PUBLIC "-//W3C//DTD SVG 1.1//EN" "http://www.w3.org/Graphics/SVG/1.1/DTD/svg11.dtd">
<svg version="1.1" id="Calque_1" xmlns="http://www.w3.org/2000/svg" xmlns:xlink="http://www.w3.org/1999/xlink" x="0px" y="0px"
	 width="30px" height="30px" viewBox="0 0 30 30" enable-background="new 0 0 30 30" xml:space="preserve">
<g>
	<path fill="none" d="M19,10H9c-0.6,0-1,0.4-1,1v10c0,0.6,0.4,1,1,1h10c0.6,0,1-0.4,1-1V11C20,10.4,19.6,10,19,10z"/>
	<path d="M19,9H9c-1.1,0-2,0.9-2,2v10c0,1.1,0.9,2,2,2h10c1.1,0,2-0.9,2-2V11C21,9.9,20.1,9,19,9z M20,21c0,0.6-0.4,1-1,1H9
		c-0.6,0-1-0.4-1-1V11c0-0.6,0.4-1,1-1h10c0.6,0,1,0.4,1,1V21z"/>
	<path d="M19.5,7h-8C11.2,7,11,7.2,11,7.5S11.2,8,11.5,8h8c1.4,0,2.5,1.1,2.5,2.5v8c0,0.3,0.2,0.5,0.5,0.5s0.5-0.2,0.5-0.5v-8
		C23,8.6,21.4,7,19.5,7z"/>
</g>
</svg>
