<?xml version="1.0" encoding="utf-8"?>
<!-- Generator: Adobe Illustrator 20.1.0, SVG Export Plug-In . SVG Version: 6.00 Build 0)  -->
<!DOCTYPE svg PUBLIC "-//W3C//DTD SVG 1.1//EN" "http://www.w3.org/Graphics/SVG/1.1/DTD/svg11.dtd">
<svg version="1.1" id="Calque_1" xmlns="http://www.w3.org/2000/svg" xmlns:xlink="http://www.w3.org/1999/xlink" x="0px" y="0px"
	 width="30px" height="30px" viewBox="0 0 30 30" enable-background="new 0 0 30 30" xml:space="preserve">
<g>
	<circle cx="16.6" cy="19.8" r="0.8"/>
	<circle cx="19.8" cy="19.8" r="0.8"/>
	<path d="M20.7,16.3L20.7,16.3l-0.4,0.3V9c0-1.1-0.9-2-2-2h-6.6c-1.1,0-2,0.9-2,2v7.6l-0.2-0.2c-1.2,0-2.4,1.5-2.4,2.9v1.6
		C7,22.3,8.5,23,9.3,23h1.8c0,0,0.1,0,0.1,0h7.7c0,0,0.1,0,0.1,0h1.8c0.9,0,2.2-0.6,2.2-2.2v-1.6C23,17.8,21.9,16.3,20.7,16.3z
		 M10.7,9c0-0.5,0.4-1,1-1h6.6c0.6,0,1,0.4,1,1v7.9h-8.6V9z M22,20.8c0,1.1-1.2,1.2-1.2,1.2H19h-0.1h-7.7h-0.1H9.3
		C9.1,22,8,21.7,8,20.8v-1.6c0-0.8,0.6-1.6,1.1-1.8l0.2,0.2l0.3,0.3H10H20h0.4l0.3-0.3l0.3-0.2c0.5,0.2,1.1,1.1,1.1,1.9V20.8z"/>
	<rect x="12.3" y="10.3" width="5.3" height="1.4"/>
	<rect x="12.3" y="13.2" width="5.3" height="1.4"/>
</g>
</svg>
