<?xml version="1.0" encoding="utf-8"?>
<!-- Generator: Adobe Illustrator 20.1.0, SVG Export Plug-In . SVG Version: 6.00 Build 0)  -->
<!DOCTYPE svg PUBLIC "-//W3C//DTD SVG 1.1//EN" "http://www.w3.org/Graphics/SVG/1.1/DTD/svg11.dtd">
<svg version="1.1" id="Calque_1" xmlns="http://www.w3.org/2000/svg" xmlns:xlink="http://www.w3.org/1999/xlink" x="0px" y="0px"
	 width="30px" height="30px" viewBox="0 0 30 30" enable-background="new 0 0 30 30" xml:space="preserve">
<g>
	<path d="M15.6,11.4h2.1c-2.2,2.2-2.4,2.4-5.6,5.6c-0.4,0.4-0.4,1,0,1.4c0.2,0.2,0.5,0.3,0.7,0.3c0.3,0,0.5-0.1,0.7-0.3
		c3.2-3.1,3.5-3.4,5.7-5.6l0.1-0.1v1.8c0,0.6,0.4,1,1,1c0.6,0,1-0.4,1-1v-4.2c0-0.6-0.4-1-1-1h-4.6c-0.6,0-1,0.4-1,1
		C14.6,11,15,11.4,15.6,11.4z"/>
	<path d="M21.1,16.7c-0.5,0-0.9,0.4-0.9,0.9v2.6H9.8V9.8h3.4c0.5,0,0.9-0.4,0.9-0.9S13.7,8,13.2,8H8.9C8.4,8,8,8.4,8,8.9v12.2
		C8,21.6,8.4,22,8.9,22h12.2c0.5,0,0.9-0.4,0.9-0.9v-3.5C22,17.1,21.6,16.7,21.1,16.7z"/>
</g>
</svg>
