<svg xmlns="http://www.w3.org/2000/svg" viewBox="0 0 50 50.2" enable-background="new 0 0 50 50.2"><path d="M0 4c0 1.1.9 2 2 2s2-.9 2-2h4.7c2.1 0 2.9.7 3.6 2.9l8 32.3c.4 1.6.9 3.4 2.7 4.2-.6.8-1 1.6-1 2.6 0 2.2 1.8 4 4 4s4-1.8 4-4c0-.7-.2-1.4-.6-2h6.1c-.3.6-.6 1.3-.6 2 0 2.2 1.8 4 4 4s4-1.8 4-4c0-1-.4-2-1.1-2.7l.1-.3c0-.5-.4-1-1-1h-15.199999999999998c-2.7 0-3-1.1-3.6-3.3l-.6-2.7h18.3c.4 0 .8-.3.9-.6l7.2-19c.1-.3.1-.6-.1-.9s-.4-.5-.8-.5h-30.7l-2.1-8.6c-.7-2.3-1.8-4.4-5.5-4.4h-6.699999999999999c-1.1 0-2 .9-2 2zm26 44c-1.1 0-2-.9-2-2s.9-2 2-2 2 .9 2 2-.9 2-2 2zm13 0c-1.1 0-2-.9-2-2s.9-2 2-2 2 .9 2 2-.9 2-2 2zm6.6-31l-6.4 17h-18.2l-4.2-17h28.8z"/></svg>