<svg xmlns="http://www.w3.org/2000/svg" viewBox="0 0 50 50" enable-background="new 0 0 50 50"><g><path d="M29 0h-8c-1.7 0-3 1.3-3 3v2h-10c-.6 0-1 .4-1 1s.4 1 1 1h1.1l3.6 40.5c.1 1.4 1.3 2.5 2.7 2.5h19.2c1.4 0 2.6-1.1 2.7-2.5l3.6-40.5h1.1c.6 0 1-.4 1-1s-.4-1-1-1h-10v-2c0-1.7-1.3-3-3-3zm-9 3c0-.6.4-1 1-1h8c.6 0 1 .4 1 1v2h-10v-2zm15.3 44.3c0 .4-.4.7-.7.7h-19.2c-.3 0-.7-.3-.7-.7l-3.6-40.3h27.8l-3.6 40.3zM25 10c-.6 0-1 .4-1 1v33c0 .6.4 1 1 1s1-.4 1-1v-33c0-.6-.4-1-1-1zM30 11v33c0 .6.4 1 1 1s1-.4 1-1v-33c0-.6-.4-1-1-1s-1 .4-1 1zM19 10c-.6 0-1 .4-1 1v33c0 .6.4 1 1 1s1-.4 1-1v-33c0-.6-.4-1-1-1z"/></g></svg>