<svg xmlns="http://www.w3.org/2000/svg" width="30" height="30" viewBox="0 0 30 30" enable-background="new 0 0 30 30"><path d="M15 17.1c-.1 0-.3 0-.4-.1l-3.2-3.2c-.2-.2-.2-.5 0-.7.2-.2.5-.2.7 0l2.8 2.8 2.8-2.8c.2-.2.5-.2.7 0 .2.2.2.5 0 .7l-3.1 3.2c.1.1-.1.1-.3.1zM15 16.6c-.3 0-.5-.2-.5-.5v-8.6c0-.3.2-.5.5-.5s.5.2.5.5v8.5c.1.4-.1.6-.5.6zM20.4 23h-10.7c-1.5 0-2.7-1.2-2.7-2.7v-2.1c0-.3.2-.5.5-.5s.5.2.5.5v2.1c0 .9.7 1.6 1.6 1.6h10.7c.9 0 1.6-.7 1.6-1.6v-2.1c0-.3.2-.5.5-.5s.5.2.5.5v2.1c.1 1.5-1 2.7-2.5 2.7z"/></svg>
