<svg xmlns="http://www.w3.org/2000/svg" viewBox="0 0 50 50" enable-background="new 0 0 50 50"><g><path d="M42.1 18.3v-.6c0-7.3-5.9-13.1-13.1-13.1-5 0-9.6 2.9-11.8 7.3-1.1-.8-2.5-1.2-3.9-1.2-3.7 0-6.7 2.9-7 6.5-3.8 1.4-6.4 5-6.4 9.1.1 5.4 4.4 9.7 9.8 9.7h8.3c.6 0 1-.4 1-1s-.4-1-1-1h-8.3c-4.3 0-7.7-3.4-7.7-7.7 0-3.4 2.3-6.5 5.6-7.4.4-.1.7-.5.7-1v-.2c0-2.8 2.2-5 5-5 1.3 0 2.6.5 3.5 1.5.2.2.6.3.9.3.3-.1.6-.3.7-.6 1.6-4.4 5.8-7.3 10.4-7.3 6.1 0 11.1 5 11.1 11.1 0 .4 0 .9-.1 1.4 0 .3.1.6.3.8s.5.3.8.3c3.8 0 6.9 3.1 6.9 6.9 0 3.8-3.1 6.9-6.9 6.9h-8.9c-.6 0-1 .4-1 1s.4 1 1 1h9.1c4.9 0 8.9-4 8.9-8.9 0-4.5-3.4-8.3-7.9-8.8zM25 25c-.6 0-1 .4-1 1v17.6l-3.3-3.3c-.4-.4-1-.4-1.4 0s-.4 1 0 1.4l5.7 5.7 5.7-5.7c.4-.4.4-1 0-1.4s-1-.4-1.4 0l-3.3 3.3v-17.6c0-.6-.4-1-1-1z"/></g></svg>