<svg xmlns="http://www.w3.org/2000/svg" width="30" height="30" viewBox="0 0 30 30" enable-background="new 0 0 30 30"><path d="M20.9 21.8h-11.9c-1.7 0-3-1.3-3-3v-7.5c0-1.7 1.3-3 3-3h12c1.7 0 3 1.3 3 3v7.5c0 1.6-1.4 3-3.1 3zm-11.8-12.4c-1 0-1.9.9-1.9 1.9v7.5c0 1 .9 1.9 1.9 1.9h12c1 0 1.9-.9 1.9-1.9v-7.5c0-1-.9-1.9-1.9-1.9h-12zM23.7 12.1l-6.9 4.1c-.4.4-1.1.4-1.8.4s-1.3-.1-1.8-.4l-6.9-4.1.6-1 6.9 4.1c.7.4 1.8.4 2.4 0l6.9-4.1.6 1zM6.442 20.033l4.805-5.888.852.696-4.805 5.888zM17.888 14.922l.852-.696 4.806 5.887-.852.696z"/></svg>
