<svg xmlns="http://www.w3.org/2000/svg" viewBox="0 0 50 50" enable-background="new 0 0 50 50"><g><path d="M41.1 16.1l4.3-6.1-5.4-5.4-6 4.3c-1.2-.7-2.5-1.2-3.8-1.6l-1.4-7.3h-7.7l-1.2 7.3c-1.3.4-2.6.9-3.8 1.6l-6-4.3-5.5 5.4 4.2 6c-.7 1.2-1.2 2.5-1.6 3.9l-7.2 1.2v7.7l7.2 1.3c.4 1.3.9 2.6 1.6 3.9l-4.3 6 5.4 5.4 6-4.2c1.2.7 2.5 1.2 3.8 1.6l1.2 7.3h7.7l1.3-7.3c1.3-.4 2.6-.9 3.8-1.6l6.1 4.3 5.4-5.4-4.3-6c.7-1.2 1.2-2.5 1.6-3.8l7.3-1.3v-7.7l-7.3-1.2c-.2-1.5-.8-2.8-1.4-4zm6.9 11l-7 1.2-.1.7c-.4 1.6-1 3.1-1.8 4.5l-.4.5 4.1 5.7-3 3.1-5.8-4-.6.3c-1.4.8-2.9 1.5-4.5 1.9l-.6.2-1.2 6.8h-4.3l-1.1-6.9-.7-.2c-1.6-.4-3.1-1-4.5-1.9l-.5-.3-5.7 4-3-3.1 4.1-5.7-.3-.6c-1.1-1.2-1.7-2.8-2.1-4.3l-.2-.6-6.8-1.3v-4.3l6.9-1.1.1-.7c.4-1.6 1-3.1 1.9-4.5l.3-.6-4-5.7 3.1-3 5.7 4.1.6-.3c1.4-.8 2.9-1.5 4.5-1.8l.6-.2 1.1-7h4.3l1.2 6.9.7.2c1.6.4 3.1 1 4.5 1.9l.6.3 5.7-4.1 3 3-4.1 5.8.3.6c.8 1.4 1.5 2.9 1.8 4.5l.2.6 7 1.1v4.3zM25 16c-5 0-9 4-9 9s4 9 9 9 9-4 9-9-4-9-9-9zm0 16c-3.9 0-7-3.1-7-7s3.1-7 7-7 7 3.1 7 7-3.1 7-7 7z"/></g></svg>