<svg xmlns="http://www.w3.org/2000/svg" viewBox="0 0 50 50" enable-background="new 0 0 50 50"><g><path d="M25 11c-7.2 0-13 5.8-13 13s5.8 13 13 13 13-5.8 13-13-5.8-13-13-13zm0 24c-6.1 0-11-4.9-11-11s4.9-11 11-11 11 4.9 11 11-4.9 11-11 11zM25 15c-5 0-9 4-9 9s4 9 9 9 9-4 9-9-4-9-9-9zm0 16c-3.9 0-7-3.1-7-7s3.1-7 7-7 7 3.1 7 7-3.1 7-7 7zM47 9h-10c-.3-.1-.9-1-1.2-1.5-.7-1.2-1.5-2.5-2.8-2.5h-16c-1.3 0-2.1 1.3-2.9 2.5-.3.5-.9 1.4-1.1 1.5h-10c-1.7 0-3 1.3-3 3v27c0 1.7 1.3 3 3 3h44c1.7 0 3-1.3 3-3v-27c0-1.7-1.3-3-3-3zm1 30c0 .6-.4 1-1 1h-44c-.6 0-1-.4-1-1v-27c0-.6.4-1 1-1h10c1.3 0 2.1-1.2 2.8-2.4.3-.6.9-1.5 1.2-1.6h16c.3.1.9 1 1.2 1.6.7 1.2 1.5 2.4 2.8 2.4h10c.6 0 1 .4 1 1v27zM9 14h-1c-1.1 0-2 .9-2 2s.9 2 2 2h1c1.1 0 2-.9 2-2s-.9-2-2-2z"/></g></svg>