<svg xmlns="http://www.w3.org/2000/svg" width="30" height="30" viewBox="0 0 30 30" enable-background="new 0 0 30 30"><path d="M15.4 6c-4.9 0-7.4 3.5-7.4 6.5 0 1.8.7 3.4 2.1 3.9.2.1.4 0 .5-.3l.2-.8c.1-.3 0-.3-.1-.6-.4-.5-.7-1.1-.7-2 0-2.6 2-5 5.1-5 2.8 0 4.3 1.7 4.3 4 0 3-1.3 5.5-3.3 5.5-1.1 0-1.9-.9-1.6-2 .3-1.3.9-2.7.9-3.7 0-.8-.5-1.6-1.4-1.6-1.1 0-2 1.1-2 2.7 0 1 .3 1.6.3 1.6s-1.1 4.8-1.3 5.6c-.4 1.7-.1 3.7 0 3.9 0 .1.2.2.2.1.1-.1 1.4-1.8 1.9-3.4.1-.5.7-2.8.7-2.8.4.7 1.4 1.3 2.5 1.3 3.3 0 5.6-3 5.6-7.1.1-2.9-2.5-5.8-6.5-5.8z"/></svg>
