<svg xmlns="http://www.w3.org/2000/svg" viewBox="0 0 50 50" enable-background="new 0 0 50 50"><g><circle cx="43" cy="21" r="2"/><path d="M47 14h-6v-14h-32v14h-6c-1.7 0-3 1.3-3 3v21c0 1.7 1.3 3 3 3h6v9h32v-9h6c1.7 0 3-1.3 3-3v-21c0-1.7-1.3-3-3-3zm-36-12h28v12h-28v-12zm28 46h-28v-18h28v18zm9-10c0 .6-.4 1-1 1h-6v-11h-32v11h-6c-.6 0-1-.4-1-1v-21c0-.6.4-1 1-1h44c.6 0 1 .4 1 1v21zM35 34h-20c-.6 0-1 .4-1 1s.4 1 1 1h20c.6 0 1-.4 1-1s-.4-1-1-1zM15 40h16c.6 0 1-.4 1-1s-.4-1-1-1h-16c-.6 0-1 .4-1 1s.4 1 1 1zM35 42h-20c-.6 0-1 .4-1 1s.4 1 1 1h20c.6 0 1-.4 1-1s-.4-1-1-1z"/></g></svg>