<svg version="1.1" id="Calque_1" xmlns="http://www.w3.org/2000/svg" xmlns:xlink="http://www.w3.org/1999/xlink" x="0px" y="0px"
	 width="40px" height="40px" viewBox="0 0 40 40" enable-background="new 0 0 40 40" xml:space="preserve">
<g>
	<path d="M28.4,22L28.4,22c0,0-0.4,0.4-0.4,0.4V11.6c0-2-1.2-3.6-3.2-3.6h-9.6c-2,0-3.2,1.6-3.2,3.6v10.8c0,0-0.4-0.4-0.4-0.4h0
		c-2,0-3.6,2-3.6,4v2.4c0,2,1.6,3.6,3.6,3.6h16.8c2,0,3.6-1.6,3.6-3.6V26C32,24,30.4,22,28.4,22z M22.4,28.4c-0.7,0-1.2-0.5-1.2-1.2
		c0-0.7,0.5-1.2,1.2-1.2c0.7,0,1.2,0.5,1.2,1.2C23.6,27.9,23.1,28.4,22.4,28.4z M14,22c0,0,0,0.4,0,0.4V11.6c0-0.7,0.5-1.6,1.2-1.6
		h9.6c0.7,0,1.2,0.9,1.2,1.6v10.8c0,0,0-0.4,0-0.4H14z M27.2,28.4c-0.7,0-1.2-0.5-1.2-1.2c0-0.7,0.5-1.2,1.2-1.2
		c0.7,0,1.2,0.5,1.2,1.2C28.4,27.9,27.9,28.4,27.2,28.4z"/>
	<rect x="16" y="13" width="8" height="2"/>
	<rect x="16" y="18" width="8" height="2"/>
</g>
<g>
	<path d="M28.4,22L28.4,22c0,0-0.4,0.4-0.4,0.4V11.6c0-2-1.2-3.6-3.2-3.6h-9.6c-2,0-3.2,1.6-3.2,3.6v10.8c0,0-0.4-0.4-0.4-0.4h0
		c-2,0-3.6,2-3.6,4v2.4c0,2,1.6,3.6,3.6,3.6h16.8c2,0,3.6-1.6,3.6-3.6V26C32,24,30.4,22,28.4,22z M22.4,28.4c-0.7,0-1.2-0.5-1.2-1.2
		c0-0.7,0.5-1.2,1.2-1.2c0.7,0,1.2,0.5,1.2,1.2C23.6,27.9,23.1,28.4,22.4,28.4z M14,22c0,0,0,0.4,0,0.4V11.6c0-0.7,0.5-1.6,1.2-1.6
		h9.6c0.7,0,1.2,0.9,1.2,1.6v10.8c0,0,0-0.4,0-0.4H14z M27.2,28.4c-0.7,0-1.2-0.5-1.2-1.2c0-0.7,0.5-1.2,1.2-1.2
		c0.7,0,1.2,0.5,1.2,1.2C28.4,27.9,27.9,28.4,27.2,28.4z"/>
	<rect x="16" y="13" width="8" height="2"/>
	<rect x="16" y="18" width="8" height="2"/>
</g>
</svg>
