<svg xmlns="http://www.w3.org/2000/svg" viewBox="0 0 30 30" enable-background="new 0 0 30 30">
<g>
	<path d="M20,8c1.1,0,2,0.9,2,2v10c0,1.1-0.9,2-2,2H10c-1.1,0-2-0.9-2-2V10c0-1.1,0.9-2,2-2H20 M20,7H10c-1.6,0-3,1.3-3,3v10
		c0,1.7,1.4,3,3,3h10c1.6,0,3-1.3,3-3V10C23,8.3,21.6,7,20,7L20,7z"/>
</g>
<g>
	<path d="M18.5,12h-7c-0.3,0-0.5,0.2-0.5,0.5c0,0.3,0.2,0.5,0.5,0.5h7c0.3,0,0.5-0.2,0.5-0.5C19,12.2,18.8,12,18.5,12L18.5,12z"/>
</g>
<g>
	<path d="M18.5,14.5h-7c-0.3,0-0.5,0.2-0.5,0.5s0.2,0.5,0.5,0.5h7c0.3,0,0.5-0.2,0.5-0.5S18.8,14.5,18.5,14.5L18.5,14.5z"/>
</g>
<g>
	<path d="M18.5,17h-7c-0.3,0-0.5,0.2-0.5,0.5s0.2,0.5,0.5,0.5h7c0.3,0,0.5-0.2,0.5-0.5S18.8,17,18.5,17L18.5,17z"/>
</g>
</svg>
