<svg xmlns="http://www.w3.org/2000/svg" width="30" height="30" viewBox="0 0 30 30" enable-background="new 0 0 30 30">
<path d="M19.8,19.9c-0.3-0.2-0.7-0.2-1,0l-3.1,2.9v-4.9C17,17.6,18,16.4,18,15c0-1.4-1-2.6-2.3-2.9V7.3l3,2.9c0.2,0.2,0.8,0.2,1,0
	c0.3-0.2,0.4-0.7,0-1l-4.3-4c-0.3-0.2-0.7-0.2-1,0l-4.3,4c-0.3,0.2-0.3,0.7,0,0.9s0.7,0.2,1,0l3.1-2.9v4.9C13,12.4,12,13.6,12,15
	c0,1.4,1,2.6,2.3,2.9v4.8l-3-2.9c-0.2-0.2-0.8-0.2-1,0c-0.3,0.2-0.4,0.7,0,1l4.3,4c0.3,0.2,0.7,0.2,1,0l4.3-4
	C20.1,20.6,20.1,20.2,19.8,19.9z"></path>
</svg>
