<svg xmlns="http://www.w3.org/2000/svg" width="30" height="30" viewBox="0 0 30 30" enable-background="new 0 0 30 30"><path d="M24.3 7.3c-.8.5-1.6.8-2.6 1-.7-.8-1.8-1.3-2.9-1.3-2.2 0-4 1.8-4 4 0 .3 0 .6.1.9-3.4-.2-6.3-1.8-8.3-4.2-.4.6-.6 1.3-.6 2.1 0 1.4.7 2.6 1.8 3.4-.7 0-1.3-.2-1.8-.5v.1c0 2 1.4 3.6 3.2 4-.3.1-.7.1-1.1.1-.3 0-.5 0-.8-.1.5 1.6 2 2.8 3.8 2.8-1.4 1.1-3.1 1.7-5 1.7-.3 0-.6 0-1-.1 1.8 1.1 3.9 1.8 6.2 1.8 7.4 0 11.5-6.2 11.5-11.5v-.5c.8-.6 1.5-1.3 2-2.1-.7.3-1.5.5-2.3.6.9-.5 1.5-1.3 1.8-2.2z"/></svg>
