<svg xmlns="http://www.w3.org/2000/svg" viewBox="0 0 50 50" enable-background="new 0 0 50 50"><path d="M48.8 24.3c-.5-.5-10.8-12.3-23.8-12.3s-23.3 11.8-23.8 12.3c-.3.4-.3.9 0 1.3.5.6 10.8 12.4 23.8 12.4s23.3-11.8 23.8-12.3c.3-.4.3-1 0-1.4zm-16.3-8.9c1.6 1.8 2.5 4.2 2.5 6.6 0 5.5-4.5 10-10 10s-10-4.5-10-10c0-2.4.9-4.8 2.5-6.6 2.4-.9 4.9-1.4 7.5-1.4 2.6 0 5.2.5 7.5 1.4zm-7.5 20.6c-10.4 0-19.3-8.5-21.6-11 1.5-1.5 5.5-5.4 10.8-8.1-.8 1.5-1.2 3.3-1.2 5.1 0 6.6 5.4 12 12 12s12-5.4 12-12c0-1.8-.4-3.6-1.2-5.1 5.3 2.7 9.3 6.6 10.8 8.1-2.3 2.5-11.2 11-21.6 11zm0-9c2.8 0 5-2.2 5-5s-2.2-5-5-5-5 2.2-5 5 2.2 5 5 5zm0-8c1.7 0 3 1.3 3 3s-1.3 3-3 3-3-1.3-3-3 1.3-3 3-3z"/></svg>