<svg xmlns="http://www.w3.org/2000/svg" viewBox="0 0 50 50" enable-background="new 0 0 50 50"><path d="M44.6 30.1c-4.2-3.9-3.6-3.3 1.4-10 3.1-4.1 4.3-6.6 3.9-7.7-.4-1-2.6-.7-2.6-.7h-7.5s-.6-.1-1 .2c-.4.2-.7.8-.7.8s-1.2 3.2-2.8 5.9c-3.3 5.7-4.7 6-5.2 5.6-1.3-.8-1-3.3-1-5.1 0-5.5.8-7.8-1.6-8.4-.8-.2-1.4-.3-3.5-.3-2.7 0-4.9 0-6.2.6-.9.4-1.5 1.4-1.1 1.4.5.1 1.6.3 2.2 1.1.8 1 .7 3.4.7 3.4s.4 6.5-1 7.3c-1 .6-2.4-.6-5.4-5.7-1.5-2.6-2.7-5.6-2.7-5.6s-.2-.5-.6-.8c-.5-.4-1.2-.5-1.2-.5h-7.1s-1.1 0-1.5.5c-.4.4 0 1.3 0 1.3s5.6 13.1 11.9 19.7c5.8 6 12.4 5.6 12.4 5.6h3s.9-.1 1.4-.6c.4-.5.4-1.3.4-1.3s-.1-4 1.8-4.6c1.8-.6 4.2 3.9 6.7 5.6 1.9 1.3 3.3 1 3.3 1l6.7-.1s3.5-.2 1.8-3c-.1-.1-.9-1.9-4.9-5.6z"/></svg>