<?xml version="1.0" encoding="utf-8"?>
<!-- Generator: Adobe Illustrator 20.1.0, SVG Export Plug-In . SVG Version: 6.00 Build 0)  -->
<!DOCTYPE svg PUBLIC "-//W3C//DTD SVG 1.1//EN" "http://www.w3.org/Graphics/SVG/1.1/DTD/svg11.dtd">
<svg version="1.1" id="Calque_1" xmlns="http://www.w3.org/2000/svg" xmlns:xlink="http://www.w3.org/1999/xlink" x="0px" y="0px"
	 width="40px" height="40px" viewBox="0 0 40 40" enable-background="new 0 0 40 40" xml:space="preserve">
<g>
	<path d="M38,30.3v-16c0,0-16.4,11.3-18,11.9C18.5,25.6,2,14.3,2,14.3v16C2,32.6,2.5,33,4.7,33h30.6C37.6,33,38,32.6,38,30.3z
		 M38,11.2C38,9.6,37.5,9,35.3,9H4.7C2.4,9,2,9.7,2,11.3l0,0.2c0,0,16.3,11.1,18,11.7c1.8-0.7,18-11.9,18-11.9L38,11.2z"/>
</g>
</svg>
