<?xml version="1.0" encoding="utf-8"?>
<!-- Generator: Adobe Illustrator 20.1.0, SVG Export Plug-In . SVG Version: 6.00 Build 0)  -->
<!DOCTYPE svg PUBLIC "-//W3C//DTD SVG 1.1//EN" "http://www.w3.org/Graphics/SVG/1.1/DTD/svg11.dtd">
<svg version="1.1" id="Calque_1" xmlns="http://www.w3.org/2000/svg" xmlns:xlink="http://www.w3.org/1999/xlink" x="0px" y="0px"
	 width="40px" height="40px" viewBox="0 0 40 40" enable-background="new 0 0 40 40" xml:space="preserve">
<path d="M19.8,3.1c-9.4,0-17,7.6-17,17s7.6,17,17,17s17-7.6,17-17S29.1,3.1,19.8,3.1z M19.7,29.6c0,0-0.8,0.5-1.3,0.5
	c0,0-0.1,0-0.1,0l0,0c-0.1,0-0.2,0-0.3,0l-0.2,0c-0.9-0.2-1.4-1.2-1.2-2.1l1.3-5.3l0.6-2.4c0.6-2.2-1.7,0.5-2.2-0.5
	c-0.3-0.7,1.8-2.1,3.3-3.2c0,0,0.8-0.5,1.3-0.5c0,0,0.1,0,0.1,0l0,0c0.1,0,0.2,0,0.3,0l0.2,0c0.9,0.2,1.5,1.2,1.3,2.1l-1.3,5.3
	l-0.6,2.4c-0.5,2.2,1.7-0.5,2.2,0.5C23.3,27.1,21.2,28.5,19.7,29.6z M23,13.1c-0.3,1.3-1.7,2.1-3,1.8c-1.3-0.3-2.1-1.7-1.8-3
	s1.7-2.1,3-1.8C22.5,10.4,23.3,11.8,23,13.1z"/>
</svg>
