<?xml version="1.0" encoding="utf-8"?>
<!-- Generator: Adobe Illustrator 20.1.0, SVG Export Plug-In . SVG Version: 6.00 Build 0)  -->
<!DOCTYPE svg PUBLIC "-//W3C//DTD SVG 1.1//EN" "http://www.w3.org/Graphics/SVG/1.1/DTD/svg11.dtd">
<svg version="1.1" id="Calque_1" xmlns="http://www.w3.org/2000/svg" xmlns:xlink="http://www.w3.org/1999/xlink" x="0px" y="0px"
	 width="40px" height="40px" viewBox="0 0 40 40" enable-background="new 0 0 40 40" xml:space="preserve">
<g>
	<path d="M33,32.5c3.7,0,7-3.4,7-7.3c0-3.7-2.7-7-6-7.3c0.1-0.5,0.1-1,0.1-1.5c0-6-4.6-10.8-10.4-10.8c-4.6,0-8.4,3.1-9.8,7.3
		c-0.7-0.2-1.5-0.3-2.2-0.3c-5.6-0.4-8.3,1.5-8.3,8.8c0,0.5,0,0.9,0.1,1.3C1.5,23.2,0,25,0,27.2c0,2.6,2.5,5.3,5,5.3H33z"/>
</g>
</svg>
