<?xml version="1.0" encoding="utf-8"?>
<!-- Generator: Adobe Illustrator 20.1.0, SVG Export Plug-In . SVG Version: 6.00 Build 0)  -->
<!DOCTYPE svg PUBLIC "-//W3C//DTD SVG 1.1//EN" "http://www.w3.org/Graphics/SVG/1.1/DTD/svg11.dtd">
<svg version="1.1" id="Calque_1" xmlns="http://www.w3.org/2000/svg" xmlns:xlink="http://www.w3.org/1999/xlink" x="0px" y="0px"
	 width="40px" height="40px" viewBox="0 0 40 40" enable-background="new 0 0 40 40" xml:space="preserve">
<g>
	<g>
		<g>
			<path d="M28.3,20.5c-0.2-0.2-0.3-0.3-0.5-0.3c-0.1,0-0.1-0.1-0.2-0.1C27.2,20,27,20,27,20h-4.2V5.6c0-1.6-1.2-2.7-2.7-2.7
				c-1.6,0-2.7,1.2-2.7,2.7V20h-4.1c-0.2,0-0.4,0.1-0.6,0.1c-0.1,0-0.1,0.1-0.2,0.1c-0.3,0.1-0.5,0.3-0.5,0.3l0,0c0,0,0,0,0,0
				c-0.4,0.3-0.6,0.8-0.6,1.2c-0.1,0.5,0.1,1,0.6,1.4l6.9,6.4c0.4,0.4,0.8,0.5,1.3,0.5c0.5,0,0.9-0.2,1.3-0.5l7-6.5
				C29,22.3,29,21.2,28.3,20.5z"/>
		</g>
	</g>
	<path d="M31.7,37.9H8.3c-0.7,0-1.3-0.6-1.3-1.3v-2.3c0-0.7,0.6-1.3,1.3-1.3h23.4c0.7,0,1.3,0.6,1.3,1.3v2.3
		C33,37.4,32.4,37.9,31.7,37.9z"/>
</g>
</svg>
