<?xml version="1.0" encoding="utf-8"?>
<!-- Generator: Adobe Illustrator 20.1.0, SVG Export Plug-In . SVG Version: 6.00 Build 0)  -->
<!DOCTYPE svg PUBLIC "-//W3C//DTD SVG 1.1//EN" "http://www.w3.org/Graphics/SVG/1.1/DTD/svg11.dtd">
<svg version="1.1" id="Calque_1" xmlns="http://www.w3.org/2000/svg" xmlns:xlink="http://www.w3.org/1999/xlink" x="0px" y="0px"
	 width="40px" height="40px" viewBox="0 0 40 40" enable-background="new 0 0 40 40" xml:space="preserve">
<g>
	<path d="M34.5,13H6.2c-2.5,0-4.5,2-4.7,4.4v6h0v9c0,2.6,2.1,4.7,4.7,4.7h28.3c2.6,0,4.7-2.1,4.7-4.7V18.3v-0.6
		C39.2,15.1,37.1,13,34.5,13z"/>
	<path d="M34.5,10.6c1.8,0,3.5,0.7,4.7,1.8c-0.1-3.2-2.5-5.8-5.4-5.8H15.7l0,0h-2.5l-0.8-3.8h-11v9.6c1.3-1.1,2.9-1.8,4.7-1.8H34.5z
		"/>
</g>
</svg>
