<?xml version="1.0" encoding="utf-8"?>
<!-- Generator: Adobe Illustrator 20.1.0, SVG Export Plug-In . SVG Version: 6.00 Build 0)  -->
<!DOCTYPE svg PUBLIC "-//W3C//DTD SVG 1.1//EN" "http://www.w3.org/Graphics/SVG/1.1/DTD/svg11.dtd">
<svg version="1.1" id="Calque_1" xmlns="http://www.w3.org/2000/svg" xmlns:xlink="http://www.w3.org/1999/xlink" x="0px" y="0px"
	 width="40px" height="40px" viewBox="0 0 40 40" enable-background="new 0 0 40 40" xml:space="preserve">
<g>
	<circle cx="14.7" cy="14.7" r="3.2"/>
	<path d="M32,3H8.2C5.5,3,3,4.7,3,7.4v23.8c0,0.4,0,0.7,0.1,1.1l10.6-9.3l7.3,4.8l8.5-9.3L37,26V7.4C37,4.7,34.7,3,32,3z M14.7,20
		c-2.9,0-5.3-2.4-5.3-5.3c0-2.9,2.4-5.3,5.3-5.3c2.9,0,5.3,2.4,5.3,5.3C20,17.6,17.6,20,14.7,20z"/>
	<path d="M21.3,30.5l-7.5-4.9L4,34.3c1,1.5,2.6,2.7,4.3,2.7H32c2.9,0,5-3.1,5-5.8V29l-7.5-7.5L21.3,30.5z"/>
</g>
</svg>
