<?xml version="1.0" encoding="utf-8"?>
<!-- Generator: Adobe Illustrator 20.1.0, SVG Export Plug-In . SVG Version: 6.00 Build 0)  -->
<!DOCTYPE svg PUBLIC "-//W3C//DTD SVG 1.1//EN" "http://www.w3.org/Graphics/SVG/1.1/DTD/svg11.dtd">
<svg version="1.1" id="Calque_1" xmlns="http://www.w3.org/2000/svg" xmlns:xlink="http://www.w3.org/1999/xlink" x="0px" y="0px"
	 width="40px" height="40px" viewBox="0 0 40 40" enable-background="new 0 0 40 40" xml:space="preserve">
<g>
	<path d="M10.3,25.1l4.4-5.4l-4.4-2.6v0l-1.5-0.9v8.4c0,0.6,0.2,1.2,0.4,1.8L10.3,25.1C10.3,25.1,10.3,25.1,10.3,25.1z"/>
	<path d="M9.8,15.2l0.5,0.3l8.1,4.7c0.9,0.4,2.3,0.4,3,0l8.5-5c0,0,0,0,0,0c0,0,0,0,0,0l1.2-0.7c-0.4-1.7-1.8-2.9-3.6-2.9H12.6
		c-1.9,0-3.4,1.3-3.7,3.1L9.8,15.2L9.8,15.2z"/>
	<path d="M30.8,16.4L30.8,16.4l-1,0.6l-4.7,2.7l4.6,5.6l0.9,1.1l0,0l0,0c0.3-0.5,0.5-1.1,0.5-1.8v-8.5L30.8,16.4z"/>
	<path d="M22.2,21.5C21.7,21.9,20.8,22,20,22s-1.6-0.2-2.3-0.5l-1.7-1l-4.9,6l-0.6,0.8l0,0l-0.3,0.3c0.6,0.5,1.5,0.9,2.4,0.9h14.8
		c0.9,0,1.8-0.4,2.4-0.9L24,20.4L22.2,21.5z"/>
</g>
</svg>
