<?xml version="1.0" encoding="utf-8"?>
<!-- Generator: Adobe Illustrator 20.1.0, SVG Export Plug-In . SVG Version: 6.00 Build 0)  -->
<!DOCTYPE svg PUBLIC "-//W3C//DTD SVG 1.1//EN" "http://www.w3.org/Graphics/SVG/1.1/DTD/svg11.dtd">
<svg version="1.1" id="Calque_1" xmlns="http://www.w3.org/2000/svg" xmlns:xlink="http://www.w3.org/1999/xlink" x="0px" y="0px"
	 width="40px" height="40px" viewBox="0 0 40 40" enable-background="new 0 0 40 40" xml:space="preserve">
<path d="M36.4,29.5c0-0.1,0-0.1,0-0.2l0-20.6V4.5c0-0.7-0.5-1.2-1.2-1.2l-25,2.4C9.5,5.7,9,6.3,9,6.9v3.5c0,0,0,0,0,0v17.3
	c-0.9,0-1.8,0.2-2.7,0.6c-3,1.3-4.6,4.3-3.6,6.6c1,2.3,4.2,3.1,7.2,1.8c2-0.9,3.3-2.5,3.7-4.1c0.1-0.2,0.1-0.3,0.1-0.5
	c0-0.1,0-0.1,0-0.2c0-0.1,0-0.1,0-0.2l0-15.7l17.8-1.7v11.2c-0.9,0-1.8,0.2-2.7,0.6c-3,1.3-4.6,4.3-3.6,6.6c1,2.3,4.2,3.1,7.2,1.8
	c2-0.9,3.3-2.5,3.7-4.1c0.1-0.2,0.1-0.3,0.1-0.5C36.4,29.6,36.4,29.6,36.4,29.5z"/>
</svg>
