<?xml version="1.0" encoding="utf-8"?>
<!-- Generator: Adobe Illustrator 20.1.0, SVG Export Plug-In . SVG Version: 6.00 Build 0)  -->
<!DOCTYPE svg PUBLIC "-//W3C//DTD SVG 1.1//EN" "http://www.w3.org/Graphics/SVG/1.1/DTD/svg11.dtd">
<svg version="1.1" id="Calque_1" xmlns="http://www.w3.org/2000/svg" xmlns:xlink="http://www.w3.org/1999/xlink" x="0px" y="0px"
	 width="40px" height="40px" viewBox="0 0 40 40" enable-background="new 0 0 40 40" xml:space="preserve">
<g>
	<path d="M32.2,6.6H12.7c-3.3,0-5.9,2.7-5.9,5.9v19.5c0,1.5,0.6,2.8,1.5,3.8H7.9c-2.1,0-3.8-1.7-3.8-3.8V8.5h0V7.1
		c0-1.6,1.2-2.8,2.7-2.9v0h29.5c-0.9-1.2-2.3-2.1-4-2.1H7c-2.8,0-5,2.3-5,5v1.4h0v23.6c0,3.2,2.6,5.8,5.8,5.9v0h0.1c0,0,0,0,0,0H8v0
		h4.5c0.1,0,0.1,0,0.2,0h19.5c3.3,0,5.9-2.7,5.9-5.9V12.6C38.1,9.3,35.4,6.6,32.2,6.6z M13.7,26.7h17.6v2.9H13.7V26.7z M13.7,23.8
		v-8.7h6.6v8.7H13.7z M22.6,23.8v-2.9h8.8v2.9H22.6z M22.6,18.1v-2.9h8.8v2.9H22.6z"/>
</g>
</svg>
