<?xml version="1.0" encoding="utf-8"?>
<!-- Generator: Adobe Illustrator 20.1.0, SVG Export Plug-In . SVG Version: 6.00 Build 0)  -->
<!DOCTYPE svg PUBLIC "-//W3C//DTD SVG 1.1//EN" "http://www.w3.org/Graphics/SVG/1.1/DTD/svg11.dtd">
<svg version="1.1" id="Calque_1" xmlns="http://www.w3.org/2000/svg" xmlns:xlink="http://www.w3.org/1999/xlink" x="0px" y="0px"
	 width="40px" height="40px" viewBox="0 0 40 40" enable-background="new 0 0 40 40" xml:space="preserve">
<g>
	<path d="M6,23.4c0.4,1.6,1,3,1.9,4.4l-2.4,2.4c-1.1,1.1-1.1,1.7-0.1,2.6l2.3,2.3C8.6,36,9.3,36,10.3,35l2.5-2.5
		c1.2,0.7,2.4,1.2,3.8,1.5v3c0,1.5,0.5,1.9,1.8,1.9h3.3c1.3,0,1.8-0.5,1.8-1.9v-3c1.3-0.3,2.6-0.8,3.8-1.5l2.5,2.6
		c1.1,1,1.7,1.1,2.6,0.1l2.3-2.3c0.9-0.9,0.9-1.6-0.1-2.6l-2.4-2.4c0.9-1.3,1.5-2.8,1.9-4.4h3.2c1.3,0,1.8-0.5,1.8-1.9v-2.9
		c0-1.4-0.4-1.9-1.8-1.9H34c-0.3-1.3-0.8-2.6-1.5-3.8l2.3-2.3c1-1,1.1-1.7,0.1-2.6l-2.3-2.3C31.7,4.6,31,4.6,30,5.7l-2.2,2.2
		C26.5,7,25,6.4,23.4,6v-3C23.4,1.5,23,1,21.6,1h-3.3c-1.3,0-1.8,0.5-1.8,1.9v3c-1.6,0.4-3,1-4.4,1.9L10,5.7c-1-1-1.7-1.1-2.6-0.1
		L5.1,7.9c-1,1-0.9,1.6,0.1,2.6l2.3,2.3C6.8,14,6.3,15.2,6,16.6H2.8c-1.3,0-1.8,0.5-1.8,1.9v2.9c0,1.5,0.5,1.9,1.8,1.9H6z M14.4,20
		c0-3.1,2.5-5.6,5.6-5.6s5.6,2.5,5.6,5.6s-2.5,5.6-5.6,5.6S14.4,23.1,14.4,20z"/>
</g>
</svg>
