<?xml version="1.0" encoding="utf-8"?>
<!-- Generator: Adobe Illustrator 20.1.0, SVG Export Plug-In . SVG Version: 6.00 Build 0)  -->
<!DOCTYPE svg PUBLIC "-//W3C//DTD SVG 1.1//EN" "http://www.w3.org/Graphics/SVG/1.1/DTD/svg11.dtd">
<svg version="1.1" id="Calque_1" xmlns="http://www.w3.org/2000/svg" xmlns:xlink="http://www.w3.org/1999/xlink" x="0px" y="0px"
	 width="40px" height="40px" viewBox="0 0 40 40" enable-background="new 0 0 40 40" xml:space="preserve">
<path d="M33.4,26.4l-3.6-3.6c-0.8-0.8-2.5-1.5-4.2,0l-2.1,2.1c-0.4-0.2-1.1-0.5-1.6-0.9c-0.6-0.4-1.9-1.5-2.7-2.2l-0.3-0.3
	c-0.3-0.3-0.6-0.6-0.7-0.7l-0.1,0l0,0c-0.7-0.7-1.7-2.1-2.2-2.7c-0.4-0.5-0.7-1.2-0.9-1.6l2.2-2.2c1.5-1.7,0.8-3.4,0-4.2l-3.6-3.7
	C12,5,10.2,5.6,9.3,6.4L7.1,8.6C6.6,9.2,6,9.9,5.8,10.7c-0.2,0.9-0.4,2.7,0.5,5.2C7,18.2,8,20,9.4,22.1c1.3,2,3.2,3.9,3.5,4.3
	l0.1,0.1l0,0l0.5,0.5c0.1,0.1,2.2,2.2,4.4,3.6c2.1,1.4,3.9,2.3,6.2,3.1c1.4,0.5,2.6,0.6,3.5,0.6c0.7,0,1.3-0.1,1.7-0.2
	c0.8-0.2,1.5-0.8,2.1-1.3l2.2-2.2C34.4,29.8,35,28,33.4,26.4z"/>
</svg>
