<?xml version="1.0" encoding="utf-8"?>
<!-- Generator: Adobe Illustrator 20.1.0, SVG Export Plug-In . SVG Version: 6.00 Build 0)  -->
<!DOCTYPE svg PUBLIC "-//W3C//DTD SVG 1.1//EN" "http://www.w3.org/Graphics/SVG/1.1/DTD/svg11.dtd">
<svg version="1.1" id="Calque_1" xmlns="http://www.w3.org/2000/svg" xmlns:xlink="http://www.w3.org/1999/xlink" x="0px" y="0px"
	 width="40px" height="40px" viewBox="0 0 40 40" enable-background="new 0 0 40 40" xml:space="preserve">
<g>
	<path d="M21.3,11.8h4.8c-4.9,4.9-5.6,5.6-12.9,12.7c-0.9,0.9-0.9,2.3,0,3.2c0.4,0.5,1,0.7,1.6,0.7c0.6,0,1.2-0.2,1.6-0.7
		c7.3-7.2,8-7.8,12.9-12.7l0.1-0.1v4.2c0,1.3,1,2.3,2.3,2.3c1.3,0,2.3-1,2.3-2.3V9.5c0-1.3-1-2.3-2.3-2.3H21.3c-1.3,0-2.3,1-2.3,2.3
		C19,10.8,20.1,11.8,21.3,11.8z"/>
	<path d="M33.9,23.9c-1.1,0-2.1,0.9-2.1,2.1v5.9H8.2V8.1H16c1.1,0,2.1-0.9,2.1-2.1S17.1,4,16,4H6.1C4.9,4,4,4.9,4,6.1v27.9
		C4,35.1,4.9,36,6.1,36h27.8c1.1,0,2.1-0.9,2.1-2.1v-8C36,24.8,35.1,23.9,33.9,23.9z"/>
</g>
</svg>
