<?xml version="1.0" encoding="utf-8"?>
<!-- Generator: Adobe Illustrator 20.1.0, SVG Export Plug-In . SVG Version: 6.00 Build 0)  -->
<!DOCTYPE svg PUBLIC "-//W3C//DTD SVG 1.1//EN" "http://www.w3.org/Graphics/SVG/1.1/DTD/svg11.dtd">
<svg version="1.1" id="Calque_1" xmlns="http://www.w3.org/2000/svg" xmlns:xlink="http://www.w3.org/1999/xlink" x="0px" y="0px"
	 width="30px" height="30px" viewBox="0 0 30 30" enable-background="new 0 0 30 30" xml:space="preserve">
<path d="M24,22.1L21.3,8.7c-0.1-0.3-0.2-0.6-0.5-0.7c-0.2-0.2-0.5-0.2-0.8-0.1l-2.3,0.5c-0.1,0-0.2,0.1-0.3,0.1V7c0-0.6-0.5-1-1-1
	H14c-0.6,0-1,0.4-1,1v0.9h-2.5V7c0-0.6-0.5-1-1-1H7C6.5,6,6,6.5,6,7v15.9c0,0.6,0.5,1,1,1h2.5c0.2,0,0.4-0.1,0.5-0.2
	c0.2,0.1,0.3,0.2,0.5,0.2H13c0.2,0,0.4-0.1,0.5-0.2c0.2,0.1,0.3,0.2,0.5,0.2h2.5c0.6,0,1-0.4,1-1V12.4l2.1,10.7
	c0.1,0.3,0.2,0.6,0.5,0.7c0.2,0.1,0.4,0.2,0.6,0.2c0.1,0,0.2,0,0.2,0l2.3-0.5C23.7,23.3,24.1,22.7,24,22.1z M9.5,22.9H7V7h2.5
	L9.5,22.9z M13,22.9h-2.5v-14H13L13,22.9z M16.5,22.9H14v-14V7h2.5L16.5,22.9z M22.9,22.5C22.9,22.5,22.9,22.5,22.9,22.5L20.6,23
	L17.9,9.4c0-0.1,0-0.1,0.1-0.2l2.3-0.5l0.1,0.1L23,22.3C23,22.4,23,22.5,22.9,22.5z"/>
</svg>
