<?xml version="1.0" encoding="utf-8"?>
<!-- Generator: Adobe Illustrator 20.1.0, SVG Export Plug-In . SVG Version: 6.00 Build 0)  -->
<!DOCTYPE svg PUBLIC "-//W3C//DTD SVG 1.1//EN" "http://www.w3.org/Graphics/SVG/1.1/DTD/svg11.dtd">
<svg version="1.1" id="Calque_1" xmlns="http://www.w3.org/2000/svg" xmlns:xlink="http://www.w3.org/1999/xlink" x="0px" y="0px"
	 width="30px" height="30px" viewBox="0 0 30 30" enable-background="new 0 0 30 30" xml:space="preserve">
<path d="M22.3,10.5C22.1,9.6,21.5,9,20.6,9h-0.3h-2.7V7.6c0-1.3-1.1-2.6-2.6-2.6c-1.3,0-2.6,1.1-2.6,2.6V9H9.6H9.4
	c-0.9,0-1.5,0.6-1.6,1.5L7,20.4c0,0.7,0.2,1.4,0.7,1.9C8.3,22.8,9,23,9.7,23h0.2h10.3h0.2c0.7,0,1.4-0.2,2-0.7
	c0.5-0.5,0.7-1.2,0.7-1.9L22.3,10.5z M13.6,7.6c0-0.8,0.7-1.5,1.5-1.5c0.8,0,1.5,0.6,1.5,1.5V9h-3V7.6z M21.4,21.6
	c-0.3,0.3-0.7,0.4-1.2,0.4h0H9.8h0c-0.5,0-0.9-0.1-1.2-0.4c-0.3-0.3-0.4-0.8-0.4-1.2l0.7-9.9c0-0.3,0.2-0.5,0.5-0.5h0h3.1v1
	c0,0.3,0.2,0.5,0.5,0.5s0.5-0.2,0.5-0.5v-1h3v1c0,0.3,0.2,0.5,0.5,0.5c0.2,0,0.5-0.2,0.5-0.5v-1h2.9h0c0.3,0,0.5,0.2,0.5,0.5
	l0.7,9.9C21.9,20.8,21.7,21.2,21.4,21.6z"/>
</svg>
