<?xml version="1.0" encoding="utf-8"?>
<!-- Generator: Adobe Illustrator 20.1.0, SVG Export Plug-In . SVG Version: 6.00 Build 0)  -->
<!DOCTYPE svg PUBLIC "-//W3C//DTD SVG 1.1//EN" "http://www.w3.org/Graphics/SVG/1.1/DTD/svg11.dtd">
<svg version="1.1" id="Calque_1" xmlns="http://www.w3.org/2000/svg" xmlns:xlink="http://www.w3.org/1999/xlink" x="0px" y="0px"
	 width="30px" height="30px" viewBox="0 0 30 30" enable-background="new 0 0 30 30" xml:space="preserve">
<path d="M13.5,18.2L13.5,18.2c0.1,0.2,0.3,0.3,0.6,0.3c0.3,0,0.6-0.2,0.7-0.4l3.6-5.5c0,0,0,0,0-0.1l0,0c0.1-0.1,0.1-0.2,0.1-0.3
	c0-0.4-0.3-0.7-0.7-0.7c-0.2,0-0.4,0.1-0.6,0.3l0,0l0,0c0,0-0.1,0.1-0.1,0.1l-3,4.7L12.8,15v0c-0.1-0.2-0.3-0.3-0.6-0.3
	c-0.4,0-0.7,0.3-0.7,0.7c0,0.2,0.1,0.4,0.2,0.5L13.5,18.2z"/>
</svg>
