<?xml version="1.0" encoding="utf-8"?>
<!-- Generator: Adobe Illustrator 20.1.0, SVG Export Plug-In . SVG Version: 6.00 Build 0)  -->
<!DOCTYPE svg PUBLIC "-//W3C//DTD SVG 1.1//EN" "http://www.w3.org/Graphics/SVG/1.1/DTD/svg11.dtd">
<svg version="1.1" id="Calque_1" xmlns="http://www.w3.org/2000/svg" xmlns:xlink="http://www.w3.org/1999/xlink" x="0px" y="0px"
	 width="30px" height="30px" viewBox="0 0 30 30" enable-background="new 0 0 30 30" xml:space="preserve">
<g>
	<path d="M19.9,20.4H9.4c-1.2,0-2.4-1.2-2.4-2.5c0-0.9,0.5-1.7,1.3-2c0-0.1,0-0.1,0-0.2c0-1.5,0.3-2.5,0.9-3.1
		c0.6-0.6,1.5-0.8,2.7-0.7c0.1,0,0.3,0,0.5,0c0.7-1.6,2.3-2.6,4-2.6c2.4,0,4.4,2,4.4,4.5c0,0,0,0.1,0,0.1c1.3,0.4,2.2,1.7,2.2,3.1
		C23,18.9,21.5,20.4,19.9,20.4z M11.4,13c-0.7,0-1.2,0.1-1.5,0.4c-0.4,0.4-0.6,1.2-0.6,2.3c0,0.1,0,0.3,0,0.4c0,0.3-0.1,0.5-0.4,0.6
		C8.4,16.8,8,17.3,8,17.9c0,0.7,0.7,1.5,1.4,1.5h10.5c1.1,0,2.1-1.1,2.1-2.2c0-1.1-0.8-2.1-1.8-2.2c-0.1,0-0.3-0.1-0.3-0.2
		c-0.1-0.1-0.1-0.2-0.1-0.4c0-0.2,0-0.3,0-0.5c0-1.9-1.5-3.5-3.4-3.5c-1.4,0-2.7,1-3.2,2.4c-0.1,0.3-0.4,0.4-0.6,0.3
		C12.4,13,12.1,13,11.8,13C11.7,13,11.5,13,11.4,13z"/>
</g>
</svg>
