<?xml version="1.0" encoding="utf-8"?>
<!-- Generator: Adobe Illustrator 20.1.0, SVG Export Plug-In . SVG Version: 6.00 Build 0)  -->
<!DOCTYPE svg PUBLIC "-//W3C//DTD SVG 1.1//EN" "http://www.w3.org/Graphics/SVG/1.1/DTD/svg11.dtd">
<svg version="1.1" id="Calque_1" xmlns="http://www.w3.org/2000/svg" xmlns:xlink="http://www.w3.org/1999/xlink" x="0px" y="0px"
	 width="30px" height="30px" viewBox="0 0 30 30" enable-background="new 0 0 30 30" xml:space="preserve">
<g>
	<path d="M22.5,17.7c-0.3,0-0.5,0.2-0.5,0.5v2.1c0,0.9-0.7,1.6-1.6,1.6H9.7c-0.9,0-1.6-0.7-1.6-1.6v-2.1c0-0.3-0.2-0.5-0.5-0.5
		c-0.3,0-0.5,0.2-0.5,0.5v2.1C7,21.8,8.2,23,9.7,23h10.7c1.5,0,2.7-1.2,2.7-2.7v-2.1C23,17.9,22.8,17.7,22.5,17.7z"/>
	<path d="M14.6,17c0.2,0.2,0.5,0.2,0.7,0l3.2-3.2c0.2-0.2,0.2-0.5,0-0.7c-0.2-0.2-0.5-0.2-0.7,0l-2.3,2.3V7.5C15.5,7.2,15.3,7,15,7
		s-0.5,0.2-0.5,0.5v7.8L12.2,13c-0.2-0.2-0.6-0.2-0.8,0c-0.2,0.2-0.3,0.5,0,0.8L14.6,17z"/>
</g>
</svg>
