<?xml version="1.0" encoding="utf-8"?>
<!-- Generator: Adobe Illustrator 19.2.1, SVG Export Plug-In . SVG Version: 6.00 Build 0)  -->
<!DOCTYPE svg PUBLIC "-//W3C//DTD SVG 1.1//EN" "http://www.w3.org/Graphics/SVG/1.1/DTD/svg11.dtd">
<svg version="1.1" id="Calque_1" xmlns="http://www.w3.org/2000/svg" xmlns:xlink="http://www.w3.org/1999/xlink" x="0px" y="0px"
	 width="30px" height="30px" viewBox="0 0 30 30" enable-background="new 0 0 30 30" xml:space="preserve">
<g>
	<path d="M15,8c0.2,0.5,0.5,1.1,0.6,1.6c0.9,2.2,1.2,2.8,1.5,3.1c0.4,0.3,1,0.4,3.3,0.6c0.5,0,1.1,0.1,1.7,0.2
		c-0.4,0.4-0.9,0.9-1.3,1.2c-1.7,1.6-2.2,2-2.3,2.5c-0.1,0.5,0,1.1,0.5,3.4c0.1,0.5,0.3,1.1,0.4,1.7c-0.5-0.3-1-0.6-1.4-0.9
		c-2-1.3-2.5-1.6-3-1.6c-0.5,0-1,0.3-3,1.6c-0.4,0.3-0.9,0.6-1.4,0.9c0.1-0.6,0.3-1.2,0.4-1.7c0.5-2.3,0.6-3,0.5-3.4
		c-0.1-0.5-0.6-0.9-2.3-2.5c-0.4-0.3-0.9-0.8-1.3-1.2c0.6-0.1,1.2-0.1,1.7-0.2c2.3-0.2,2.9-0.3,3.3-0.6c0.4-0.3,0.6-0.9,1.5-3.1
		C14.5,9.2,14.8,8.6,15,8 M15,6c-0.5,0-2.3,5.5-2.8,5.9c-0.5,0.4-6.1,0.5-6.2,1c-0.2,0.5,4.3,4,4.5,4.6c0.2,0.6-1.4,6.2-1,6.5
		c0,0,0,0,0.1,0c0.7,0,4.9-3.1,5.5-3.1c0.6,0,4.8,3.1,5.5,3.1c0,0,0.1,0,0.1,0c0.4-0.3-1.2-5.9-1-6.5c0.2-0.6,4.6-4.1,4.5-4.6
		c-0.1-0.5-5.7-0.6-6.2-1C17.3,11.5,15.5,6,15,6L15,6z"/>
</g>
</svg>
