<?xml version="1.0" encoding="utf-8"?>
<!-- Generator: Adobe Illustrator 20.1.0, SVG Export Plug-In . SVG Version: 6.00 Build 0)  -->
<!DOCTYPE svg PUBLIC "-//W3C//DTD SVG 1.1//EN" "http://www.w3.org/Graphics/SVG/1.1/DTD/svg11.dtd">
<svg version="1.1" id="Calque_1" xmlns="http://www.w3.org/2000/svg" xmlns:xlink="http://www.w3.org/1999/xlink" x="0px" y="0px"
	 width="30px" height="30px" viewBox="0 0 30 30" enable-background="new 0 0 30 30" xml:space="preserve">
<path d="M16.8,24h-3.7c-0.3,0-0.5-0.2-0.5-0.5v-6.2L7.3,8.8c-0.1-0.2-0.1-0.3,0-0.5C7.4,8.1,7.6,8,7.7,8h14.5c0.2,0,0.3,0.1,0.4,0.3
	c0.1,0.2,0.1,0.4,0,0.5l-5.4,8.5v6.2C17.3,23.8,17.1,24,16.8,24z M13.7,23h2.7v-5.9c0-0.1,0-0.2,0.1-0.3l5-7.9H8.6l5,7.9
	c0.1,0.1,0.1,0.2,0.1,0.3L13.7,23z"/>
</svg>
