<?xml version="1.0" encoding="utf-8"?>
<!-- Generator: Adobe Illustrator 20.1.0, SVG Export Plug-In . SVG Version: 6.00 Build 0)  -->
<!DOCTYPE svg PUBLIC "-//W3C//DTD SVG 1.1//EN" "http://www.w3.org/Graphics/SVG/1.1/DTD/svg11.dtd">
<svg version="1.1" id="Calque_1" xmlns="http://www.w3.org/2000/svg" xmlns:xlink="http://www.w3.org/1999/xlink" x="0px" y="0px"
	 width="30px" height="30px" viewBox="0 0 30 30" enable-background="new 0 0 30 30" xml:space="preserve">
<path d="M19.5,10c0.3,0,0.5,0.2,0.5,0.5v9c0,0.3-0.2,0.5-0.5,0.5h-9c-0.3,0-0.5-0.2-0.5-0.5v-9c0-0.3,0.2-0.5,0.5-0.5H19.5 M19.5,9
	h-9C9.7,9,9,9.7,9,10.5v9c0,0.8,0.7,1.5,1.5,1.5h9c0.8,0,1.5-0.7,1.5-1.5v-9C21,9.7,20.3,9,19.5,9L19.5,9z"/>
<path d="M22.5,13c-0.3,0-0.5-0.2-0.5-0.5v-2C22,9.1,20.9,8,19.5,8h-2C17.2,8,17,7.8,17,7.5S17.2,7,17.5,7h2c1.9,0,3.5,1.6,3.5,3.5v2
	C23,12.8,22.8,13,22.5,13z"/>
<path d="M7.5,13C7.2,13,7,12.8,7,12.5v-2C7,8.6,8.6,7,10.5,7h2C12.8,7,13,7.2,13,7.5S12.8,8,12.5,8h-2C9.1,8,8,9.1,8,10.5v2
	C8,12.8,7.8,13,7.5,13z"/>
<path d="M19.5,23h-2c-0.3,0-0.5-0.2-0.5-0.5s0.2-0.5,0.5-0.5h2c1.4,0,2.5-1.1,2.5-2.5v-2c0-0.3,0.2-0.5,0.5-0.5s0.5,0.2,0.5,0.5v2
	C23,21.4,21.4,23,19.5,23z"/>
<path d="M12.5,23h-2C8.6,23,7,21.4,7,19.5v-2C7,17.2,7.2,17,7.5,17S8,17.2,8,17.5v2c0,1.4,1.1,2.5,2.5,2.5h2c0.3,0,0.5,0.2,0.5,0.5
	S12.8,23,12.5,23z"/>
</svg>
