<?xml version="1.0" encoding="utf-8"?>
<!-- Generator: Adobe Illustrator 20.1.0, SVG Export Plug-In . SVG Version: 6.00 Build 0)  -->
<!DOCTYPE svg PUBLIC "-//W3C//DTD SVG 1.1//EN" "http://www.w3.org/Graphics/SVG/1.1/DTD/svg11.dtd">
<svg version="1.1" id="Calque_1" xmlns="http://www.w3.org/2000/svg" xmlns:xlink="http://www.w3.org/1999/xlink" x="0px" y="0px"
	 width="30px" height="30px" viewBox="0 0 30 30" enable-background="new 0 0 30 30" xml:space="preserve">
<g>
	<path fill="none" d="M18,15h-7c-0.3,0-0.5,0.2-0.5,0.5S10.7,16,11,16h7c0.3,0,0.5-0.2,0.5-0.5S18.3,15,18,15z"/>
	<path fill="none" d="M18,17.5h-7c-0.3,0-0.5,0.2-0.5,0.5s0.2,0.5,0.5,0.5h7c0.3,0,0.5-0.2,0.5-0.5S18.3,17.5,18,17.5z"/>
	<path fill="none" d="M18,12.5h-7c-0.3,0-0.5,0.2-0.5,0.5s0.2,0.5,0.5,0.5h7c0.3,0,0.5-0.2,0.5-0.5S18.3,12.5,18,12.5z"/>
	<path d="M19,8h-9c-1.7,0-3,1.3-3,3v9c0,1.6,1.3,3,3,3h9c1.6,0,3-1.4,3-3v-9C22,9.3,20.7,8,19,8z M18,18.5h-7
		c-0.3,0-0.5-0.2-0.5-0.5s0.2-0.5,0.5-0.5h7c0.3,0,0.5,0.2,0.5,0.5S18.3,18.5,18,18.5z M18,16h-7c-0.3,0-0.5-0.2-0.5-0.5
		S10.7,15,11,15h7c0.3,0,0.5,0.2,0.5,0.5S18.3,16,18,16z M18,13.5h-7c-0.3,0-0.5-0.2-0.5-0.5s0.2-0.5,0.5-0.5h7
		c0.3,0,0.5,0.2,0.5,0.5S18.3,13.5,18,13.5z"/>
	<path d="M19,6h-7.5C11.2,6,11,6.2,11,6.5S11.2,7,11.5,7H19c2.2,0,4,1.8,4,4v7.5c0,0.3,0.2,0.5,0.5,0.5s0.5-0.2,0.5-0.5V11
		C24,8.2,21.8,6,19,6z"/>
</g>
</svg>
