<?xml version="1.0" encoding="utf-8"?>
<!-- Generator: Adobe Illustrator 20.1.0, SVG Export Plug-In . SVG Version: 6.00 Build 0)  -->
<!DOCTYPE svg PUBLIC "-//W3C//DTD SVG 1.1//EN" "http://www.w3.org/Graphics/SVG/1.1/DTD/svg11.dtd">
<svg version="1.1" id="Calque_1" xmlns="http://www.w3.org/2000/svg" xmlns:xlink="http://www.w3.org/1999/xlink" x="0px" y="0px"
	 width="30px" height="30px" viewBox="0 0 30 30" enable-background="new 0 0 30 30" xml:space="preserve">
<g>
	<path d="M23.5,13.5h-2.7v-2.7c0-0.2-0.2-0.4-0.4-0.4h-0.8c-0.2,0-0.4,0.2-0.4,0.4v2.7h-2.7c-0.2,0-0.4,0.2-0.4,0.4v0.8
		c0,0.2,0.2,0.4,0.4,0.4h2.7v2.7c0,0.2,0.2,0.4,0.4,0.4h0.8c0.2,0,0.4-0.2,0.4-0.4V15h2.7c0.2,0,0.4-0.2,0.4-0.4v-0.8
		C23.9,13.7,23.7,13.5,23.5,13.5z"/>
	<path d="M14.5,15.9c-0.6-0.4-1.1-1-1.1-1.2c0-0.3,0-0.5,0.8-1.1c1-0.7,1.5-1.7,1.5-2.8c0-0.9-0.3-1.8-0.8-2.4h0.4
		c0.1,0,0.2,0,0.2-0.1l1.1-0.8c0.1-0.1,0.2-0.3,0.1-0.4C16.6,7.1,16.5,7,16.3,7h-4.7c-0.5,0-1,0.1-1.6,0.3c-1.7,0.6-2.9,2.1-2.9,3.6
		c0,2.1,1.7,3.8,3.9,3.8c0,0.2-0.1,0.3-0.1,0.5c0,0.3,0.1,0.6,0.3,0.9c0,0,0,0-0.1,0c-2.1,0-4,1-4.7,2.6c-0.2,0.4-0.3,0.8-0.3,1.2
		c0,0.4,0.1,0.8,0.3,1.1c0.5,0.8,1.4,1.4,2.7,1.8c0.7,0.2,1.4,0.3,2.2,0.3c0.7,0,1.3-0.1,1.9-0.3c1.9-0.5,3.1-1.9,3.1-3.5
		C16.3,17.7,15.8,16.8,14.5,15.9z M9.6,10.8C9.5,10,9.6,9.3,10,8.9c0.3-0.3,0.6-0.4,1-0.4l0,0c1,0,2,1.2,2.2,2.6
		c0.1,0.8-0.1,1.5-0.5,2c-0.3,0.3-0.6,0.4-1,0.4h0h0C10.8,13.4,9.7,12.2,9.6,10.8z M11.3,21.5c-1.5,0-2.8-0.9-2.8-2.2
		c0-1.1,1.4-2.1,3-2.1h0c0.3,0,0.7,0.1,1,0.2c0.1,0.1,0.2,0.1,0.3,0.2c0.7,0.5,1.2,0.8,1.4,1.4c0,0.1,0,0.3,0,0.4
		C14.4,20.8,13.3,21.5,11.3,21.5z"/>
</g>
</svg>
