<?xml version="1.0" encoding="utf-8"?>
<!-- Generator: Adobe Illustrator 20.1.0, SVG Export Plug-In . SVG Version: 6.00 Build 0)  -->
<!DOCTYPE svg PUBLIC "-//W3C//DTD SVG 1.1//EN" "http://www.w3.org/Graphics/SVG/1.1/DTD/svg11.dtd">
<svg version="1.1" id="Calque_1" xmlns="http://www.w3.org/2000/svg" xmlns:xlink="http://www.w3.org/1999/xlink" x="0px" y="0px"
	 width="30px" height="30px" viewBox="0 0 30 30" enable-background="new 0 0 30 30" xml:space="preserve">
<g>
	<g>
		<path d="M15,8.3l5.5,5v7.4c0,0.1,0,0.1,0,0.2c0,0-0.1,0-0.1,0c0,0-1.1,0-1.9,0c-0.3,0-0.6,0-0.6,0l0,0c0,0-0.1,0-0.1,0
			c0,0-0.1,0-0.1,0c0,0,0-0.1,0-0.2v-3.2c0-0.6-0.4-1-1-1h-3.3c-0.6,0-1,0.4-1,1v3.2c0,0.1,0,0.1,0,0.2c0,0-0.1,0-0.1,0H9.6
			c0,0-0.1,0-0.1,0c0-0.1,0-0.1,0-0.2v-7.7L15,8.3 M15,7l-6.4,5.6l-0.1,0.1v0v8.1c0,1,0.2,1.2,1.1,1.2h2.6c0.9,0,1.1-0.2,1.1-1.2
			v-3.2h3.3v3.2c0,1,0.2,1.2,1.1,1.2c0,0,0,0,0,0c0,0,0.3,0,0.7,0c0.8,0,1.9,0,1.9,0c0.9,0,1.1-0.2,1.1-1.2v-7.9c0,0,0-0.1-0.1-0.1
			L15,7L15,7z M8.6,12.6L8.6,12.6L8.6,12.6z M8.6,12.6C8.5,12.6,8.5,12.7,8.6,12.6L8.6,12.6L8.6,12.6z"/>
	</g>
</g>
</svg>
