<?xml version="1.0" encoding="utf-8"?>
<!-- Generator: Adobe Illustrator 20.1.0, SVG Export Plug-In . SVG Version: 6.00 Build 0)  -->
<!DOCTYPE svg PUBLIC "-//W3C//DTD SVG 1.1//EN" "http://www.w3.org/Graphics/SVG/1.1/DTD/svg11.dtd">
<svg version="1.1" id="Calque_1" xmlns="http://www.w3.org/2000/svg" xmlns:xlink="http://www.w3.org/1999/xlink" x="0px" y="0px"
	 width="30px" height="30px" viewBox="0 0 30 30" enable-background="new 0 0 30 30" xml:space="preserve">
<g>
	<path d="M7.2,19.2l3.5-4.5l-3.6-2.2v0L6,11.9v7c0,0.5,0.1,1,0.4,1.5L7.2,19.2C7.2,19.2,7.2,19.2,7.2,19.2z"/>
	<path d="M6.8,11l0.4,0.3l6.5,4c0.7,0.4,1.8,0.4,2.4,0l6.8-4.2c0,0,0,0,0,0c0,0,0,0,0,0l1-0.6C23.6,9,22.4,8,21,8H9
		c-1.5,0-2.7,1.1-3,2.5L6.8,11L6.8,11z"/>
	<path d="M23.7,12L23.7,12l-0.8,0.5l-3.8,2.3l3.7,4.7l0.7,0.9l0,0l0,0c0.2-0.4,0.4-0.9,0.4-1.5v-7.1L23.7,12z"/>
	<path d="M16.8,16.2c-0.4,0.4-1.1,0.4-1.8,0.4c-0.7,0-1.3-0.1-1.8-0.4l-1.4-0.9l-3.9,5L7.3,21l0,0l-0.2,0.3C7.6,21.7,8.3,22,9,22
		h11.9c0.7,0,1.4-0.3,2-0.8l-4.7-5.9L16.8,16.2z"/>
</g>
</svg>
