<?xml version="1.0" encoding="utf-8"?>
<!-- Generator: Adobe Illustrator 20.1.0, SVG Export Plug-In . SVG Version: 6.00 Build 0)  -->
<!DOCTYPE svg PUBLIC "-//W3C//DTD SVG 1.1//EN" "http://www.w3.org/Graphics/SVG/1.1/DTD/svg11.dtd">
<svg version="1.1" id="Calque_1" xmlns="http://www.w3.org/2000/svg" xmlns:xlink="http://www.w3.org/1999/xlink" x="0px" y="0px"
	 width="30px" height="30px" viewBox="0 0 30 30" enable-background="new 0 0 30 30" xml:space="preserve">
<path d="M20,7H10c-1.7,0-3,1.3-3,3v10c0,1.7,1.3,3,3,3h10c1.7,0,3-1.3,3-3V10C23,8.3,21.7,7,20,7z M22,10v7h-6.5V8H20
	C21.1,8,22,8.9,22,10z M10,8h4.5v4H8v-2C8,8.9,8.9,8,10,8z M8,20v-7h6.5v9H10C8.9,22,8,21.1,8,20z M20,22h-4.5v-4H22v2
	C22,21.1,21.1,22,20,22z"/>
</svg>
