<?xml version="1.0" encoding="utf-8"?>
<!-- Generator: Adobe Illustrator 20.1.0, SVG Export Plug-In . SVG Version: 6.00 Build 0)  -->
<!DOCTYPE svg PUBLIC "-//W3C//DTD SVG 1.1//EN" "http://www.w3.org/Graphics/SVG/1.1/DTD/svg11.dtd">
<svg version="1.1" id="Calque_1" xmlns="http://www.w3.org/2000/svg" xmlns:xlink="http://www.w3.org/1999/xlink" x="0px" y="0px"
	 width="30px" height="30px" viewBox="0 0 30 30" enable-background="new 0 0 30 30" xml:space="preserve">
<g>
	<path d="M23.5,10.3l-17-0.1C6.3,10.2,6,9.9,6,9.6C6.1,9.2,6.3,9,6.5,9l17,0.1C23.8,9,24,9.3,24,9.7S23.8,10.3,23.5,10.3z"/>
	<path d="M23.5,15.6l-17-0.1C6.2,15.6,6,15.3,6,15c0-0.3,0.2-0.6,0.5-0.6l17,0.1c0.3,0,0.5,0.3,0.5,0.6C24,15.4,23.8,15.6,23.5,15.6
		z"/>
	<path d="M23.5,21L6.5,21C6.2,21,6,20.7,6,20.3c0-0.3,0.2-0.6,0.5-0.6l17,0.1c0.3,0,0.5,0.3,0.5,0.6S23.7,21,23.5,21z"/>
</g>
</svg>
