<svg xmlns="http://www.w3.org/2000/svg" width="30" height="30" viewBox="0 0 30 30" enable-background="new 0 0 30 30"><path d="M20.3 23h-2c-1.5 0-2.7-1.2-2.7-2.6v-2c0-1.5 1.2-2.6 2.7-2.6h2c1.5 0 2.7 1.2 2.7 2.6v2c0 1.4-1.2 2.6-2.7 2.6zm-2-6c-.7 0-1.3.6-1.3 1.4v2c0 .7.6 1.4 1.3 1.4h2c.7 0 1.3-.6 1.3-1.4v-2c0-.7-.6-1.4-1.3-1.4h-2zM20.3 14.3h-2c-1.5 0-2.7-1.2-2.7-2.6v-2c0-1.5 1.2-2.6 2.7-2.6h2c1.5-.1 2.7 1.1 2.7 2.5v2c0 1.5-1.2 2.7-2.7 2.7zm-2-6c-.7 0-1.3.6-1.3 1.4v2c0 .7.6 1.4 1.3 1.4h2c.7 0 1.3-.6 1.3-1.4v-2c0-.7-.6-1.4-1.3-1.4h-2zM11.7 23h-2c-1.5 0-2.7-1.2-2.7-2.6v-2c0-1.5 1.2-2.6 2.7-2.6h2c1.5 0 2.7 1.2 2.7 2.6v2c-.1 1.4-1.3 2.6-2.7 2.6zm-2-6c-.7 0-1.3.6-1.3 1.4v2c0 .7.6 1.4 1.3 1.4h2c.7 0 1.3-.6 1.3-1.4v-2c0-.7-.6-1.4-1.3-1.4h-2z"/></svg>
