<?xml version="1.0" encoding="utf-8"?>
<!-- Generator: Adobe Illustrator 20.1.0, SVG Export Plug-In . SVG Version: 6.00 Build 0)  -->
<!DOCTYPE svg PUBLIC "-//W3C//DTD SVG 1.1//EN" "http://www.w3.org/Graphics/SVG/1.1/DTD/svg11.dtd">
<svg version="1.1" id="Calque_1" xmlns="http://www.w3.org/2000/svg" xmlns:xlink="http://www.w3.org/1999/xlink" x="0px" y="0px"
	 width="30px" height="30px" viewBox="0 0 30 30" enable-background="new 0 0 30 30" xml:space="preserve">
<g>
	<g>
		<path d="M20.7,8.7h-9.2c-1.5,0-2.8,1.3-2.8,2.8v9.2c0,0.7,0.3,1.3,0.7,1.8H9.3c-1,0-1.8-0.8-1.8-1.8V9.5h0V8.9
			c0-0.7,0.6-1.3,1.3-1.4v0h13.9c-0.4-0.6-1.1-1-1.9-1H8.9c-1.3,0-2.4,1.1-2.4,2.4v0.7h0v11.2c0,1.5,1.2,2.8,2.7,2.8v0h0
			c0,0,0,0,0,0h0v0h2.1c0,0,0.1,0,0.1,0h9.2c1.5,0,2.8-1.3,2.8-2.8v-9.2C23.5,9.9,22.2,8.7,20.7,8.7z M22.5,20.7
			c0,1-0.8,1.8-1.8,1.8h-9.2c-1,0-1.8-0.8-1.8-1.8v-9.2c0-1,0.8-1.8,1.8-1.8h9.2c1,0,1.8,0.8,1.8,1.8V20.7z"/>
	</g>
	<rect x="16.2" y="12.4" width="4.1" height="1.4"/>
	<rect x="16.2" y="15.4" width="4.1" height="1.4"/>
	<rect x="12" y="12.4" width="3.1" height="4.4"/>
	<rect x="12" y="18.4" width="8.3" height="1.4"/>
</g>
</svg>
