<?xml version="1.0" encoding="utf-8"?>
<!-- Generator: Adobe Illustrator 20.1.0, SVG Export Plug-In . SVG Version: 6.00 Build 0)  -->
<!DOCTYPE svg PUBLIC "-//W3C//DTD SVG 1.1//EN" "http://www.w3.org/Graphics/SVG/1.1/DTD/svg11.dtd">
<svg version="1.1" id="Calque_1" xmlns="http://www.w3.org/2000/svg" xmlns:xlink="http://www.w3.org/1999/xlink" x="0px" y="0px"
	 width="30px" height="30px" viewBox="0 0 30 30" enable-background="new 0 0 30 30" xml:space="preserve">
<g>
	<path fill="none" d="M11.4,16.1h3c0.1,0,0.3,0.1,0.3,0.2c0.1,0.1,0.1,0.2,0.1,0.4l-1.2,4.9l3-4l-4.3-4L11.4,16.1z"/>
	<path d="M14.4,7.9h4l-2.8,5.2c-0.1,0.1-0.1,0.3,0,0.4c0.1,0.1,0.2,0.2,0.4,0.2l3.3,0l-1,1.5l0.7,0.6l1.6-2.2c0.1-0.1,0.1-0.3,0-0.5
		c-0.1-0.1-0.2-0.2-0.4-0.2l-3.4,0l2.8-5.2c0.1-0.1,0.1-0.3,0-0.4C19.4,7.1,19.2,7,19.1,7h-5c-0.2,0-0.4,0.1-0.4,0.3l-0.9,2.8
		l0.7,0.6L14.4,7.9z"/>
	<path d="M21.6,20.7L8.9,9.2C8.7,9,8.4,9,8.2,9.2C8,9.4,8,9.7,8.2,9.9l3.3,3l-1.2,3.5c0,0.1,0,0.3,0.1,0.4c0.1,0.1,0.2,0.2,0.4,0.2
		h3l-1.6,6.5c0,0.2,0.1,0.4,0.2,0.5c0.1,0,0.1,0,0.2,0c0.1,0,0.3-0.1,0.4-0.2l4.2-5.8l3.7,3.3c0.1,0.1,0.2,0.1,0.3,0.1
		c0.1,0,0.3-0.1,0.4-0.2C21.8,21.2,21.8,20.9,21.6,20.7z M13.6,21.6l1.2-4.9c0-0.1,0-0.3-0.1-0.4c-0.1-0.1-0.2-0.2-0.3-0.2h-3
		l0.8-2.5l4.3,4L13.6,21.6z"/>
</g>
</svg>
