<?xml version="1.0" encoding="utf-8"?>
<!-- Generator: Adobe Illustrator 20.1.0, SVG Export Plug-In . SVG Version: 6.00 Build 0)  -->
<!DOCTYPE svg PUBLIC "-//W3C//DTD SVG 1.1//EN" "http://www.w3.org/Graphics/SVG/1.1/DTD/svg11.dtd">
<svg version="1.1" id="Calque_1" xmlns="http://www.w3.org/2000/svg" xmlns:xlink="http://www.w3.org/1999/xlink" x="0px" y="0px"
	 width="30px" height="30px" viewBox="0 0 30 30" enable-background="new 0 0 30 30" xml:space="preserve">
<g>
	<path d="M15.7,23h-1.3c-0.8,0-1.2-0.4-1.2-1.2v-0.9c-0.3-0.1-0.6-0.2-1-0.4l-0.7,0.7c-0.4,0.4-1,0.8-1.7,0l-0.9-0.9
		c-0.6-0.6-0.5-1.1,0-1.7L9.7,18c-0.2-0.4-0.4-0.8-0.5-1.2H8.2c-0.8,0-1.2-0.4-1.2-1.2v-1.2c0-0.8,0.4-1.2,1.2-1.2h0.9
		c0.1-0.3,0.2-0.6,0.4-1l-0.7-0.7c-0.2-0.2-0.5-0.5-0.5-0.9c0-0.4,0.2-0.6,0.4-0.8l0.9-0.9c0.6-0.6,1.1-0.5,1.7,0.1L12,9.6
		c0.4-0.2,0.8-0.4,1.2-0.5V8.2c0-0.8,0.4-1.2,1.2-1.2h1.3c1,0,1.2,0.7,1.2,1.2v0.9c0.4,0.1,0.8,0.3,1.2,0.5L18.7,9
		c0.2-0.2,0.5-0.4,0.8-0.5c0.4,0,0.7,0.2,0.9,0.4l0.9,0.9c0.2,0.2,0.4,0.4,0.4,0.8c0,0.4-0.2,0.7-0.5,0.9l-0.7,0.7
		c0.2,0.3,0.3,0.6,0.4,1h0.9c1,0,1.2,0.7,1.2,1.2v1.2c0,0.5-0.1,1.2-1.2,1.2H21c-0.1,0.4-0.3,0.8-0.5,1.2l0.7,0.7
		c0.6,0.6,0.6,1.1,0.1,1.7l-0.9,0.9c-0.7,0.7-1.3,0.3-1.7,0l-0.8-0.8c-0.3,0.2-0.6,0.3-1,0.4v0.9C16.9,22.3,16.7,23,15.7,23z
		 M14.2,22.1c0,0,0.1,0,0.2,0h1.3c0.2,0,0.2,0,0.2,0c0,0,0-0.1,0-0.3v-1.6l0.4-0.1c0.5-0.1,0.9-0.3,1.4-0.6l0.3-0.2l1.3,1.3
		c0.1,0.1,0.2,0.2,0.2,0.2c0,0,0.1,0,0.2-0.1l0.9-0.9c0.1-0.1,0.1-0.2,0.1-0.2c0,0,0-0.1-0.2-0.2l-1.2-1.2l0.2-0.3
		c0.3-0.5,0.5-1,0.7-1.6l0.1-0.4h1.6c0.2,0,0.2,0,0.2,0c0,0,0-0.1,0-0.3v-1.2c0-0.2,0-0.3,0-0.3c0,0-0.1,0-0.2,0h-1.6l-0.1-0.4
		c-0.1-0.5-0.3-0.9-0.6-1.4l-0.2-0.3l1.2-1.2c0.1-0.1,0.2-0.2,0.2-0.2c0,0,0-0.1-0.1-0.2l-0.9-0.9c-0.1-0.1-0.2-0.1-0.2-0.1
		c0,0-0.1,0-0.2,0.2l-1.1,1.1l-0.3-0.2c-0.5-0.3-1-0.5-1.6-0.7l-0.4-0.1V8.2c0-0.2,0-0.3,0-0.3c0,0-0.1,0-0.2,0h-1.3
		c-0.2,0-0.2,0-0.2,0c0,0,0,0.1,0,0.3v1.6l-0.4,0.1c-0.6,0.1-1.1,0.4-1.6,0.7l-0.3,0.2l-1.1-1.1c-0.2-0.2-0.2-0.2-0.2-0.2
		c0,0-0.1,0-0.2,0.1l-0.9,0.9c-0.1,0.1-0.1,0.2-0.1,0.2c0,0,0,0.1,0.2,0.2l1.2,1.2l-0.2,0.3c-0.2,0.4-0.4,0.9-0.6,1.4l-0.1,0.4H8.2
		c-0.2,0-0.2,0-0.2,0c0,0,0,0.1,0,0.3v1.2c0,0.2,0,0.3,0,0.3c0,0,0.1,0,0.2,0h1.6l0.1,0.4c0.1,0.6,0.4,1.1,0.7,1.6l0.2,0.3l-1.2,1.2
		c-0.1,0.1-0.2,0.2-0.2,0.2c0,0,0,0.1,0.1,0.2l0.9,0.9c0.1,0.1,0.2,0.1,0.2,0.1c0,0,0.1,0,0.2-0.2l1.2-1.2l0.3,0.2
		c0.4,0.3,0.9,0.4,1.4,0.6l0.4,0.1v1.6C14.2,22,14.2,22,14.2,22.1C14.2,22.1,14.2,22.1,14.2,22.1z M15,17.7c-1.5,0-2.7-1.2-2.7-2.7
		c0-1.5,1.2-2.7,2.7-2.7s2.7,1.2,2.7,2.7C17.7,16.5,16.5,17.7,15,17.7z M15,13.3c-1,0-1.8,0.8-1.8,1.7c0,1,0.8,1.8,1.8,1.8
		s1.7-0.8,1.7-1.8C16.8,14,16,13.3,15,13.3z"/>
</g>
</svg>
