<?xml version="1.0" encoding="utf-8"?>
<!-- Generator: Adobe Illustrator 20.1.0, SVG Export Plug-In . SVG Version: 6.00 Build 0)  -->
<!DOCTYPE svg PUBLIC "-//W3C//DTD SVG 1.1//EN" "http://www.w3.org/Graphics/SVG/1.1/DTD/svg11.dtd">
<svg version="1.1" id="Calque_1" xmlns="http://www.w3.org/2000/svg" xmlns:xlink="http://www.w3.org/1999/xlink" x="0px" y="0px"
	 width="30px" height="30px" viewBox="0 0 30 30" enable-background="new 0 0 30 30" xml:space="preserve">
<path d="M15.4,6C10.5,6,8,9.5,8,12.5c0,1.8,0.7,3.4,2.1,3.9c0.2,0.1,0.4,0,0.5-0.3c0-0.2,0.2-0.6,0.2-0.8c0.1-0.3,0-0.3-0.1-0.6
	c-0.4-0.5-0.7-1.1-0.7-2c0-2.6,2-5,5.1-5c2.8,0,4.3,1.7,4.3,4c0,3-1.3,5.5-3.3,5.5c-1.1,0-1.9-0.9-1.6-2c0.3-1.3,0.9-2.7,0.9-3.7
	c0-0.8-0.5-1.6-1.4-1.6c-1.1,0-2,1.1-2,2.7c0,1,0.3,1.6,0.3,1.6s-1.1,4.8-1.3,5.6c-0.4,1.7-0.1,3.7,0,3.9c0,0.1,0.2,0.2,0.2,0.1
	c0.1-0.1,1.4-1.8,1.9-3.4c0.1-0.5,0.7-2.8,0.7-2.8c0.4,0.7,1.4,1.3,2.5,1.3c3.3,0,5.6-3,5.6-7.1C22,8.9,19.4,6,15.4,6z"/>
</svg>
