<?xml version="1.0" encoding="utf-8"?>
<!-- Generator: Adobe Illustrator 20.1.0, SVG Export Plug-In . SVG Version: 6.00 Build 0)  -->
<!DOCTYPE svg PUBLIC "-//W3C//DTD SVG 1.1//EN" "http://www.w3.org/Graphics/SVG/1.1/DTD/svg11.dtd">
<svg version="1.1" id="Calque_1" xmlns="http://www.w3.org/2000/svg" xmlns:xlink="http://www.w3.org/1999/xlink" x="0px" y="0px"
	 width="30px" height="30px" viewBox="0 0 30 30" enable-background="new 0 0 30 30" xml:space="preserve">
<g>
	<g>
		<g>
			<g>
				<path d="M13.3,19.6c-3.4,0-6.3-2.9-6.3-6.3S9.8,7,13.3,7s6.3,2.9,6.3,6.3S16.7,19.6,13.3,19.6z M13.3,8.1
					c-2.9,0-5.1,2.3-5.1,5.1s2.3,5.1,5.1,5.1s5.1-2.3,5.1-5.1S16.1,8.1,13.3,8.1z"/>
			</g>
			<g>
				<path d="M17.9,17.1l5,5c0.2,0.2,0.2,0.6,0,0.8c-0.2,0.2-0.6,0.3-0.9,0l-5-5L17.9,17.1z"/>
			</g>
		</g>
	</g>
</g>
</svg>
