<?xml version="1.0" encoding="utf-8"?>
<!-- Generator: Adobe Illustrator 20.1.0, SVG Export Plug-In . SVG Version: 6.00 Build 0)  -->
<!DOCTYPE svg PUBLIC "-//W3C//DTD SVG 1.1//EN" "http://www.w3.org/Graphics/SVG/1.1/DTD/svg11.dtd">
<svg version="1.1" id="Calque_1" xmlns="http://www.w3.org/2000/svg" xmlns:xlink="http://www.w3.org/1999/xlink" x="0px" y="0px"
	 width="30px" height="30px" viewBox="0 0 30 30" enable-background="new 0 0 30 30" xml:space="preserve">
<path d="M22.7,7.7c-0.4-0.6-1.3-0.9-2-0.6L8.1,12c-0.8,0.2-1.2,0.9-1.1,1.7c0.1,0.8,0.6,1.4,1.4,1.5l4.9,0.8
	c0.3,0.1,0.6,0.3,0.6,0.6l0.8,4.9c0.2,0.8,0.9,1.4,1.7,1.4c0.7,0,1.3-0.4,1.6-1l4.9-12.7C23.1,8.7,23,8.2,22.7,7.7z M14.1,15.2
	c-0.2-0.1-0.4-0.2-0.6-0.2l-4.9-0.8C8.2,14.1,8,13.8,8,13.6c-0.1-0.2,0-0.6,0.4-0.7L21,7.9c0.1,0,0.2,0,0.3,0L14.1,15.2z M21.9,8.8
	L17,21.5c-0.1,0.4-0.5,0.4-0.6,0.4c-0.3,0-0.6-0.2-0.7-0.6l-0.8-4.9c0-0.2-0.1-0.3-0.1-0.5l7.2-7.2C21.9,8.7,21.9,8.8,21.9,8.8z"/>
</svg>
