<?xml version="1.0" encoding="utf-8"?>
<!-- Generator: Adobe Illustrator 20.1.0, SVG Export Plug-In . SVG Version: 6.00 Build 0)  -->
<!DOCTYPE svg PUBLIC "-//W3C//DTD SVG 1.1//EN" "http://www.w3.org/Graphics/SVG/1.1/DTD/svg11.dtd">
<svg version="1.1" id="Calque_1" xmlns="http://www.w3.org/2000/svg" xmlns:xlink="http://www.w3.org/1999/xlink" x="0px" y="0px"
	 width="30px" height="30px" viewBox="0 0 30 30" enable-background="new 0 0 30 30" xml:space="preserve">
<g>
	<path d="M22.5,10.1c-0.3,0-0.5,0.2-0.5,0.5v9.7c0,0.9-0.8,1.7-1.7,1.7H9.7C8.8,22,8,21.2,8,20.3v-9.7c0-0.3-0.2-0.5-0.5-0.5
		c-0.3,0-0.5,0.2-0.5,0.5v9.7C7,21.8,8.2,23,9.7,23h10.7c1.5,0,2.7-1.1,2.7-2.7v-9.7C23,10.3,22.8,10.1,22.5,10.1z"/>
	<path d="M12.2,11.1l2.3-2.3v7.8c0,0.3,0.2,0.5,0.5,0.5s0.5-0.2,0.5-0.5V8.8l2.2,2.3c0.2,0.2,0.6,0.2,0.8,0c0.2-0.2,0.3-0.5,0-0.8
		l-3.2-3.2c-0.2-0.2-0.5-0.2-0.7,0l-3.2,3.2c-0.2,0.2-0.2,0.5,0,0.7C11.6,11.3,12,11.3,12.2,11.1z"/>
</g>
</svg>
