<?xml version="1.0" encoding="utf-8"?>
<!-- Generator: Adobe Illustrator 20.1.0, SVG Export Plug-In . SVG Version: 6.00 Build 0)  -->
<!DOCTYPE svg PUBLIC "-//W3C//DTD SVG 1.1//EN" "http://www.w3.org/Graphics/SVG/1.1/DTD/svg11.dtd">
<svg version="1.1" id="Calque_1" xmlns="http://www.w3.org/2000/svg" xmlns:xlink="http://www.w3.org/1999/xlink" x="0px" y="0px"
	 width="30px" height="30px" viewBox="0 0 30 30" enable-background="new 0 0 30 30" xml:space="preserve">
<path d="M20,8c1.1,0,2,0.9,2,2v10c0,1.1-0.9,2-2,2H10c-1.1,0-2-0.9-2-2V10c0-1.1,0.9-2,2-2H20 M20,7H10c-1.7,0-3,1.3-3,3v10
	c0,1.7,1.3,3,3,3h10c1.6,0,3-1.3,3-3V10C23,8.3,21.6,7,20,7L20,7z"/>
<path d="M13.6,12c-0.2,0-0.4,0.1-0.4,0.4v4.8c0,0.2,0.2,0.4,0.4,0.4c0.1,0,0.2,0,0.2-0.1l3.8-2.4c0.1-0.1,0.1-0.4,0-0.5l-3.8-2.4
	C13.8,12.1,13.7,12,13.6,12L13.6,12z"/>
</svg>
