<?xml version="1.0" encoding="utf-8"?>
<!-- Generator: Adobe Illustrator 20.1.0, SVG Export Plug-In . SVG Version: 6.00 Build 0)  -->
<!DOCTYPE svg PUBLIC "-//W3C//DTD SVG 1.1//EN" "http://www.w3.org/Graphics/SVG/1.1/DTD/svg11.dtd">
<svg version="1.1" id="Calque_1" xmlns="http://www.w3.org/2000/svg" xmlns:xlink="http://www.w3.org/1999/xlink" x="0px" y="0px"
	 width="30px" height="30px" viewBox="0 0 30 30" enable-background="new 0 0 30 30" xml:space="preserve">
<g>
	<polygon fill="none" points="18.8,10.1 11.1,17.8 12.2,18.9 19.9,11.2 19.9,11.2 	"/>
	<polygon fill="none" points="20.5,10.6 21.1,10 20,8.9 20,8.9 20,8.9 19.4,9.5 19.4,9.5 	"/>
	<path d="M21.7,9.3l-1.1-1.1C20.5,8.1,20.3,8,20,8s-0.5,0.1-0.6,0.3l-0.6,0.6c0,0,0,0,0,0l-0.6,0.6l-7.7,7.7l-0.6,0.6l0.6,0.6
		l1.1,1.1l0.6,0.6l0.6-0.6l7.7-7.7l0.6-0.6l0,0l0.6-0.6C22.1,10.2,22.1,9.7,21.7,9.3z M20,8.9C20,8.9,20,8.9,20,8.9L20,8.9l1.1,1.1
		l-0.6,0.6l-1.1-1.1l0,0L20,8.9z M12.2,18.9l-1.1-1.1l7.7-7.7l1.1,1.1c0,0,0,0,0,0L12.2,18.9z"/>
	<path d="M9.6,18.1L9,18.7l0,0l-1,3.1C8,21.9,8.1,22,8.2,22l3.1-1l0,0l0,0l0,0l0,0l0.6-0.6L9.6,18.1z"/>
</g>
</svg>
