<?xml version="1.0" encoding="utf-8"?>
<!-- Generator: Adobe Illustrator 20.1.0, SVG Export Plug-In . SVG Version: 6.00 Build 0)  -->
<!DOCTYPE svg PUBLIC "-//W3C//DTD SVG 1.1//EN" "http://www.w3.org/Graphics/SVG/1.1/DTD/svg11.dtd">
<svg version="1.1" id="Calque_1" xmlns="http://www.w3.org/2000/svg" xmlns:xlink="http://www.w3.org/1999/xlink" x="0px" y="0px"
	 width="30px" height="30px" viewBox="0 0 30 30" enable-background="new 0 0 30 30" xml:space="preserve">
<g>
	<path fill="#292929" d="M15,5C9.5,5,5,9.5,5,15s4.5,10,10,10s10-4.5,10-10S20.5,5,15,5z M19.5,15.5h-4v4c0,0.3-0.2,0.5-0.5,0.5
		s-0.5-0.2-0.5-0.5v-4h-4c-0.3,0-0.5-0.2-0.5-0.5s0.2-0.5,0.5-0.5h4v-4c0-0.3,0.2-0.5,0.5-0.5s0.5,0.2,0.5,0.5v4h4
		c0.3,0,0.5,0.2,0.5,0.5S19.8,15.5,19.5,15.5z"/>
	<path fill="#FFFFFF" d="M15,4C8.9,4,4,8.9,4,15s4.9,11,11,11s11-4.9,11-11S21.1,4,15,4z M15,25C9.5,25,5,20.5,5,15S9.5,5,15,5
		s10,4.5,10,10S20.5,25,15,25z"/>
	<path fill="#FFFFFF" d="M19.5,14.5h-4v-4c0-0.3-0.2-0.5-0.5-0.5s-0.5,0.2-0.5,0.5v4h-4c-0.3,0-0.5,0.2-0.5,0.5s0.2,0.5,0.5,0.5h4v4
		c0,0.3,0.2,0.5,0.5,0.5s0.5-0.2,0.5-0.5v-4h4c0.3,0,0.5-0.2,0.5-0.5S19.8,14.5,19.5,14.5z"/>
</g>
</svg>
