<?xml version="1.0" encoding="UTF-8" standalone="no"?>
<!DOCTYPE svg PUBLIC "-//W3C//DTD SVG 1.1//EN" "http://www.w3.org/Graphics/SVG/1.1/DTD/svg11.dtd">
<svg xmlns="http://www.w3.org/2000/svg" xmlns:xlink="http://www.w3.org/1999/xlink" version="1.1"
     viewbox="0 0 2048.00 1325.15" width="2048.00" height="1325.15" style="overflow:hidden" xml:space="preserve">
<defs>
<style type="text/css">
<![CDATA[
@font-face { font-family: 'f0yJIavK40#15'; font-weight: normal; font-style: normal;  src: url(svg/font1.ttf) format('truetype'); }

.s0yJIavK40 { fill: rgb( 40,  66, 150); font-family: 'f0yJIavK40#15'; font-size: 36.80px; }
.s0yJIavK41 { fill: rgb( 40,  66, 150); font-family: 'f0yJIavK40#15'; font-size: 40.15px; }
]]>
</style>
</defs>
<image x="0" y="0" width="2048" height="1325.15" xlink:href="svg/svg.jpg"/>
<g class="s0yJIavK40" transform="translate(330.5 1167.55)" >
<text y="0" x="125.85 156.2 179.1 214.15 238.6 261.35 269.4 287.85 308 333.7 ">Memphis,TN</text>
<text y="0" x="612.25 638.6 661.55 683.15 707.5 730.45 743.8 762.55 787.5 808.7 828.85 854.55 ">Henderson,TN</text>
<text y="0" x="1049.35 1070.55 1095.5 1117 1138.35 1158.3 1181.55 1206.5 1219.45 1242.15 1262 1293.25 ">Jonesboro,AR</text>
<text y="44.2" x="0 21.6 36.05 62.35 101.1 125.8 148.8 157.05 180.1 188.6 214.15 236 252.25 273.2 294.75 320.35 332.9 355.65 377.25 401.6 436.1 460.95 ">5100Raleigh-LagrangeRd</text>
<text y="44.2" x="590.7 605.35 626.35 665.05 689.65 711.45 731.9 756.8 769.9 806.95 835.25 850.25 858 879.2 ">170RecordDrive</text>
<text y="44.2" x="1006.75 1021.15 1044.5 1078.35 1104.6 1129.3 1152.25 1173.25 1187.9 1223.05 1247.9 1273.15 1291.95 1316.9 1339.25 ">162CountyRd.437</text>
<text y="88.35" x="126.45 150.25 175.1 190.1 197.85 222.95 245.4 269.5 277.95 299.95 313.9 336.5 ">901.458.6133</text>
<text y="88.35" x="630.55 651.05 672.85 687.8 695.95 717.9 740.5 766.55 772 786.4 810.25 836.55 ">731.520.1600</text>
<text y="88.35" x="1056.9 1080.3 1101.3 1127.45 1135.95 1158.9 1181.4 1204.8 1212.9 1236.05 1259.05 1285.35 ">870.935.8300</text>
</g>
<g class="s0yJIavK41" transform="translate(208.6 1072.45)" >
<text y="0" x="0 28.8 53.9 64.45 86.85 115.5 147.75 168.95 196.45 207 229.85 255.65 269.75 293.5 331.15 361.1 385.5 431.6 447.9 456.75 482.4 511.15 539.65 548.35 572.9 598.15 626.5 632.4 646.75 662.1 687.8 730.85 751.9 786.15 820.3 853.45 861.6 885.1 908.7 936.85 945.85 969.15 989.35 1014.45 1023.4 1046.75 1068.1 1076.2 1098.55 1125.8 1177.35 1198.5 1218.65 1243.75 1252.75 1276.1 1296.5 1335.9 1359.35 1383 1411.15 1420.15 1443.45 1463.6 1488.7 1497.7 1521.05 1542.4 1550.5 1572.85 1600.05 ">CallUsTollFreeNow1.800.264.1180|www.eaglesales.com|sales@eaglesales.com</text>
</g>
</svg>
