<?xml version="1.0" encoding="utf-8"?>
<!-- Generator: Adobe Illustrator 20.1.0, SVG Export Plug-In . SVG Version: 6.00 Build 0)  -->
<!DOCTYPE svg PUBLIC "-//W3C//DTD SVG 1.1//EN" "http://www.w3.org/Graphics/SVG/1.1/DTD/svg11.dtd">
<svg version="1.1" id="Calque_1" xmlns="http://www.w3.org/2000/svg" xmlns:xlink="http://www.w3.org/1999/xlink" x="0px" y="0px"
	 width="40px" height="40px" viewBox="0 0 40 40" enable-background="new 0 0 40 40" xml:space="preserve">
<g>
	<path d="M29.9,23c-0.7,0-1.2,0.5-1.2,1.2v2.8c0,0.9-0.7,1.6-1.6,1.6H13c-0.9,0-1.6-0.7-1.6-1.6v-2.8c0-0.7-0.5-1.2-1.2-1.2
		S9,23.5,9,24.2v2.8c0,2.2,1.8,4,4,4h14.1c2.3,0,4-1.8,4-4v-2.8C31.1,23.5,30.7,23,29.9,23z"/>
	<path d="M19.2,23c0.2,0.2,0.5,0.3,0.8,0.3c0.3,0,0.6-0.1,0.8-0.3l4.2-4.2c0.5-0.5,0.5-1.2,0-1.7c-0.5-0.5-1.2-0.5-1.7,0l-2.2,2.2
		v-9.1c0-0.7-0.5-1.2-1.2-1.2c-0.7,0-1.2,0.5-1.2,1.2v9.1L16.7,17l0,0c-0.2-0.2-0.5-0.3-0.9-0.3c-0.3,0-0.7,0.1-0.9,0.3
		c-0.5,0.5-0.5,1.3,0,1.7L19.2,23z"/>
</g>
</svg>
