<?xml version="1.0" encoding="utf-8"?>
<!-- Generator: Adobe Illustrator 20.1.0, SVG Export Plug-In . SVG Version: 6.00 Build 0)  -->
<!DOCTYPE svg PUBLIC "-//W3C//DTD SVG 1.1//EN" "http://www.w3.org/Graphics/SVG/1.1/DTD/svg11.dtd">
<svg version="1.1" id="Calque_1" xmlns="http://www.w3.org/2000/svg" xmlns:xlink="http://www.w3.org/1999/xlink" x="0px" y="0px"
	 width="40px" height="40px" viewBox="0 0 40 40" enable-background="new 0 0 40 40" xml:space="preserve">
<g>
	<path d="M20,2c1,0,4.6,11.1,5.6,11.8c1,0.7,12.1,0.9,12.4,1.9c0.3,1-8.6,8-9,9.2c-0.4,1.2,2.9,12.4,2.1,13
		c-0.8,0.6-9.9-6.1-11.1-6.1c-1.2,0-10.3,6.7-11.1,6.1c-0.8-0.6,2.5-11.8,2.1-13c-0.4-1.2-9.3-8.2-9-9.2c0.3-1,11.5-1.2,12.4-1.9
		C15.4,13.1,19,2,20,2z"/>
</g>
</svg>
