<?xml version="1.0" encoding="utf-8"?>
<!-- Generator: Adobe Illustrator 20.1.0, SVG Export Plug-In . SVG Version: 6.00 Build 0)  -->
<!DOCTYPE svg PUBLIC "-//W3C//DTD SVG 1.1//EN" "http://www.w3.org/Graphics/SVG/1.1/DTD/svg11.dtd">
<svg version="1.1" id="Calque_1" xmlns="http://www.w3.org/2000/svg" xmlns:xlink="http://www.w3.org/1999/xlink" x="0px" y="0px"
	 width="40px" height="40px" viewBox="0 0 40 40" enable-background="new 0 0 40 40" xml:space="preserve">
<g>
	<path d="M4.2,15.5c-0.1,0-0.1,0.1-0.2,0.1L4.2,15.5z M4,15.6L4,15.6v19.5C4,37.5,4.4,38,6.7,38h6.4c2.3,0,2.7-0.4,2.7-2.9v-7.6h8.2
		v7.6c0,2.4,0.5,2.8,2.7,2.8c0,0,6.4,0,6.4,0c2.3,0,2.7-0.5,2.7-2.8V16.2c0-0.1-0.1-0.1-0.2-0.2L20,2L4.2,15.5L4,15.6z"/>
</g>
</svg>
