<?xml version="1.0" encoding="utf-8"?>
<!-- Generator: Adobe Illustrator 20.1.0, SVG Export Plug-In . SVG Version: 6.00 Build 0)  -->
<!DOCTYPE svg PUBLIC "-//W3C//DTD SVG 1.1//EN" "http://www.w3.org/Graphics/SVG/1.1/DTD/svg11.dtd">
<svg version="1.1" id="Calque_1" xmlns="http://www.w3.org/2000/svg" xmlns:xlink="http://www.w3.org/1999/xlink" x="0px" y="0px"
	 width="40px" height="40px" viewBox="0 0 40 40" enable-background="new 0 0 40 40" xml:space="preserve">
<g>
	<rect x="16" y="13" width="8" height="2"/>
	<rect x="16" y="17.3" width="8" height="2"/>
	<path d="M28.5,22h-0.1L28,22.4V11c0-1.6-1.3-2.9-3-2.9H15c-1.6,0-3,1.3-3,2.9v11.4L11.7,22c-0.7,0-1.4,0.3-1.9,0.9
		c-1,0.9-1.7,2.2-1.7,3.5v2.3c0,2.3,2.2,3.2,3.5,3.2h2.7c0,0,0.1,0,0.1,0h11.6c0,0,0.1,0,0.1,0h2.7c1.3,0,3.3-0.9,3.3-3.2v-2.3
		C32,24.3,30.3,22,28.5,22z M28.3,27.7c-0.2,0.4-0.6,0.7-1.1,0.7c-0.2,0-0.3,0-0.5-0.1c-0.4-0.2-0.7-0.6-0.7-1.1
		c0-0.5,0.3-0.9,0.7-1.1c0.1-0.1,0.3-0.1,0.5-0.1s0.3,0,0.5,0.1c0.4,0.2,0.7,0.6,0.7,1.1C28.4,27.4,28.4,27.6,28.3,27.7z M22.4,28.5
		c-0.2,0-0.3,0-0.5-0.1c-0.3-0.1-0.5-0.4-0.6-0.6c-0.1-0.1-0.1-0.3-0.1-0.5c0-0.7,0.5-1.2,1.2-1.2c0.2,0,0.3,0,0.5,0.1
		c0.1,0.1,0.3,0.1,0.4,0.3s0.2,0.2,0.3,0.4c0.1,0.1,0.1,0.3,0.1,0.5C23.6,27.9,23.1,28.5,22.4,28.5z M14,11c0-0.5,0.5-0.9,1-0.9h10
		c0.5,0,1,0.4,1,0.9v11.4H14V11z"/>
</g>
</svg>
