<?xml version="1.0" encoding="utf-8"?>
<!-- Generator: Adobe Illustrator 20.1.0, SVG Export Plug-In . SVG Version: 6.00 Build 0)  -->
<!DOCTYPE svg PUBLIC "-//W3C//DTD SVG 1.1//EN" "http://www.w3.org/Graphics/SVG/1.1/DTD/svg11.dtd">
<svg version="1.1" id="Calque_1" xmlns="http://www.w3.org/2000/svg" xmlns:xlink="http://www.w3.org/1999/xlink" x="0px" y="0px"
	 width="40px" height="40px" viewBox="0 0 40 40" enable-background="new 0 0 40 40" xml:space="preserve">
<g id="icons">
	<path d="M34.8,18.2c-1.2,0-2.2,1-2.2,2.2c0,7.2-5.7,13-12.6,13s-12.6-5.8-12.6-13S13,7.4,20,7.4c3,0,6.1,1.1,8.5,2.7h-2.4l0,0
		c-1.2,0-2.2,1-2.2,2.2s1,2.2,2.2,2.2h10V4.3c0-1.3-1-2.2-2.2-2.2c-1.2,0-2.2,1-2.2,2.2V7C28.6,4.5,24.3,2.9,20,2.9
		c-9.4,0-17,7.8-17,17.5S10.6,38,20,38s17-7.8,17-17.5C37,19.2,36,18.2,34.8,18.2z"/>
</g>
</svg>
