<?xml version="1.0" encoding="utf-8"?>
<!-- Generator: Adobe Illustrator 20.1.0, SVG Export Plug-In . SVG Version: 6.00 Build 0)  -->
<!DOCTYPE svg PUBLIC "-//W3C//DTD SVG 1.1//EN" "http://www.w3.org/Graphics/SVG/1.1/DTD/svg11.dtd">
<svg version="1.1" id="Calque_1" xmlns="http://www.w3.org/2000/svg" xmlns:xlink="http://www.w3.org/1999/xlink" x="0px" y="0px"
	 width="40px" height="40px" viewBox="0 0 40 40" enable-background="new 0 0 40 40" xml:space="preserve">
<path d="M30.6,3H9.4C5.9,3,3,5.9,3,9.4v21.3C3,34.1,5.9,37,9.4,37h21.2c3.5,0,6.4-2.9,6.4-6.4V9.4C37,5.9,34.1,3,30.6,3z M24.8,20.2
	l-6.9,4.6c-0.1,0.1-0.3,0.2-0.5,0.2c-0.3,0-0.7-0.3-0.7-0.7v-9.3c0-0.4,0.3-0.7,0.7-0.7c0.2,0,0.3,0.1,0.5,0.2l6.9,4.6
	C25,19.5,25,20,24.8,20.2z"/>
</svg>
